<?xml version="1.0" encoding="UTF-8" standalone="no"?>
<svg
   xmlns:dc="http://purl.org/dc/elements/1.1/"
   xmlns:cc="http://creativecommons.org/ns#"
   xmlns:rdf="http://www.w3.org/1999/02/22-rdf-syntax-ns#"
   xmlns:svg="http://www.w3.org/2000/svg"
   xmlns="http://www.w3.org/2000/svg"
   xmlns:sodipodi="http://sodipodi.sourceforge.net/DTD/sodipodi-0.dtd"
   xmlns:inkscape="http://www.inkscape.org/namespaces/inkscape"
   version="1.1"
   id="svg2"
   xml:space="preserve"
   width="547.30664"
   height="554.38666"
   viewBox="0 0 547.30664 554.38666"
   sodipodi:docname="2859733.eps"><metadata
     id="metadata8"><rdf:RDF><cc:Work
         rdf:about=""><dc:format>image/svg+xml</dc:format><dc:type
           rdf:resource="http://purl.org/dc/dcmitype/StillImage" /></cc:Work></rdf:RDF></metadata><defs
     id="defs6" /><sodipodi:namedview
     pagecolor="#ffffff"
     bordercolor="#666666"
     borderopacity="1"
     objecttolerance="10"
     gridtolerance="10"
     guidetolerance="10"
     inkscape:pageopacity="0"
     inkscape:pageshadow="2"
     inkscape:window-width="640"
     inkscape:window-height="480"
     id="namedview4" /><g
     id="g10"
     inkscape:groupmode="layer"
     inkscape:label="ink_ext_XXXXXX"
     transform="matrix(1.3333333,0,0,-1.3333333,0,554.38667)"><g
       id="g12"
       transform="scale(0.1)"><path
         d="m 1352.49,614.859 h 2369 v 3256.1 h -2369 z"
         style="fill:#f3f2f1;fill-opacity:1;fill-rule:nonzero;stroke:none"
         id="path14" /><path
         d="M 3721.48,3693.99 H 1352.49 v 176.97 h 2368.99 v -176.97"
         style="fill:#dadbd8;fill-opacity:1;fill-rule:nonzero;stroke:none"
         id="path16" /><path
         d="m 1459.94,3782.47 c 0,-13.15 -10.66,-23.81 -23.8,-23.81 -13.15,0 -23.81,10.66 -23.81,23.81 0,13.16 10.66,23.81 23.81,23.81 13.14,0 23.8,-10.65 23.8,-23.81"
         style="fill:#f3f2f1;fill-opacity:1;fill-rule:nonzero;stroke:none"
         id="path18" /><path
         d="m 1638.23,3787.59 c 0,-13.15 -10.66,-23.8 -23.8,-23.8 -13.15,0 -23.81,10.65 -23.81,23.8 0,13.15 10.66,23.81 23.81,23.81 13.14,0 23.8,-10.66 23.8,-23.81"
         style="fill:#f3f2f1;fill-opacity:1;fill-rule:nonzero;stroke:none"
         id="path20" /><path
         d="m 1553.44,3787.59 c 0,-13.15 -10.66,-23.8 -23.81,-23.8 -13.15,0 -23.8,10.65 -23.8,23.8 0,13.15 10.65,23.81 23.8,23.81 13.15,0 23.81,-10.66 23.81,-23.81"
         style="fill:#f3f2f1;fill-opacity:1;fill-rule:nonzero;stroke:none"
         id="path22" /><path
         d="m 3976.49,3533.25 c 0,0 -94.36,39.13 -157.64,-180.72 -63.27,-219.86 -79.58,-342.74 -79.58,-342.74 0,0 -18.85,-47.15 -52.95,-25.31 -34.11,21.83 -88.59,91.94 -134.84,68.47 -47.97,-24.34 -53.73,-84.24 -27.93,-165.63 25.79,-81.39 75.75,-261.79 80.2,-278.11 4.38,-16.04 -0.3,-41.8 -25.92,-30.65 -25.61,11.15 -183.73,130.85 -236.03,52.42 -52.31,-78.42 56.79,-293.36 68.27,-317.09 11.48,-23.72 8.65,-35.35 -2.03,-43.84 -10.69,-8.49 -60.03,36.75 -106.4,68.96 -46.37,32.2 -105.77,61.41 -132.16,13.63 -26.38,-47.77 -4.34,-220.62 211.78,-466.48 l 107.61,-107.38 148.06,37.27 c 312.02,99.05 420.1,235.72 422.15,290.26 2.06,54.54 -63.9,60.18 -120.23,56.53 -56.33,-3.66 -121.95,-16.94 -126.73,-4.16 -4.77,12.79 -1.18,24.21 20.89,38.61 22.08,14.39 226.45,142.19 222.13,236.36 -4.33,94.17 -201.54,73.24 -229.23,76.91 -27.7,3.67 -18.41,28.15 -6.39,39.63 12.25,11.68 148.15,140.41 212.24,196.82 64.09,56.41 90.08,110.68 61.55,156.28 -27.5,43.98 -110.35,12.04 -150.84,10.94 -40.48,-1.1 -32.28,49.01 -32.28,49.01 0,0 49.45,113.67 108.72,334.64 59.26,220.97 -44.39,236.03 -44.39,236.03"
         style="fill:#e7e8e5;fill-opacity:1;fill-rule:nonzero;stroke:none"
         id="path24" /><path
         d="m 3919.49,3336.45 c 0,0 -0.25,-1.61 -0.98,-4.69 -0.82,-3.3 -1.96,-7.83 -3.41,-13.66 -3.16,-12.21 -7.72,-29.81 -13.57,-52.37 -11.84,-45.47 -29.46,-111.14 -51.55,-192.19 -44.12,-162.12 -106.99,-385.55 -177.24,-632.08 -70.27,-246.6 -133.69,-469.87 -178.72,-631.73 -22.39,-80.78 -40.53,-146.22 -53.14,-191.72 -6.25,-22.45 -11.13,-39.97 -14.51,-52.12 -1.67,-5.77 -2.96,-10.25 -3.91,-13.51 -0.9,-3.04 -1.49,-4.56 -1.49,-4.56 0,0 0.24,1.61 0.98,4.69 0.82,3.29 1.95,7.83 3.4,13.66 3.17,12.2 7.73,29.81 13.57,52.36 11.84,45.47 29.46,111.12 51.55,192.18 44.13,162.12 106.99,385.57 177.26,632.18 70.25,246.52 133.68,469.77 178.7,631.63 22.39,80.78 40.53,146.23 53.15,191.73 6.25,22.45 11.12,39.97 14.51,52.12 1.66,5.77 2.96,10.26 3.9,13.52 0.91,3.04 1.5,4.56 1.5,4.56"
         style="fill:#dadbd8;fill-opacity:1;fill-rule:nonzero;stroke:none"
         id="path26" /><path
         d="m 3623.75,2951.79 c 0.32,0.17 2.37,-3.17 5.81,-9.35 3.47,-6.16 8.19,-15.22 13.93,-26.48 11.41,-22.53 26.35,-54.07 42.18,-89.18 15.42,-34.59 29.36,-65.87 40.14,-90.06 4.82,-10.68 8.92,-19.76 12.28,-27.22 2.92,-6.43 4.39,-10.06 4.07,-10.23 -0.32,-0.17 -2.39,3.15 -5.88,9.31 -3.45,6.18 -8.18,15.25 -13.8,26.57 -11.19,22.65 -25.72,54.37 -41.55,89.48 -15.66,34.46 -29.81,65.63 -40.76,89.73 -4.88,10.66 -9.02,19.73 -12.43,27.18 -2.87,6.45 -4.31,10.09 -3.99,10.25"
         style="fill:#dadbd8;fill-opacity:1;fill-rule:nonzero;stroke:none"
         id="path28" /><path
         d="m 3756.38,2699.27 c -0.66,1.28 62.99,35 142.13,75.3 79.16,40.32 143.84,71.95 144.5,70.67 0.65,-1.28 -62.98,-34.99 -142.14,-75.31 -79.14,-40.3 -143.84,-71.94 -144.49,-70.66"
         style="fill:#dadbd8;fill-opacity:1;fill-rule:nonzero;stroke:none"
         id="path30" /><path
         d="m 3631.41,2325.5 c -0.05,0.35 3.83,1.3 10.9,2.73 8.18,1.57 18.18,3.5 29.96,5.76 25.27,4.89 60.16,11.74 98.38,20.69 38.27,8.86 72.61,18.06 97.44,24.9 11.57,3.17 21.39,5.85 29.42,8.05 6.96,1.86 10.87,2.72 10.99,2.38 0.1,-0.34 -3.6,-1.86 -10.38,-4.31 -6.79,-2.45 -16.68,-5.8 -28.99,-9.65 -24.6,-7.76 -58.91,-17.55 -97.29,-26.44 -38.34,-8.98 -73.46,-15.29 -98.95,-19.25 -12.75,-1.93 -23.09,-3.36 -30.27,-4.14 -7.17,-0.8 -11.15,-1.08 -11.21,-0.72"
         style="fill:#dadbd8;fill-opacity:1;fill-rule:nonzero;stroke:none"
         id="path32" /><path
         d="m 3461.17,2527.5 c 0.28,0.24 2.94,-2.32 7.53,-7.16 4.59,-4.83 11.11,-11.93 19.07,-20.78 15.93,-17.7 37.67,-42.39 61.43,-69.86 23.78,-27.49 45.07,-52.56 60.29,-70.88 7.61,-9.16 13.69,-16.62 17.82,-21.86 4.12,-5.24 6.26,-8.26 5.99,-8.49 -0.27,-0.23 -2.94,2.32 -7.53,7.16 -4.59,4.83 -11.1,11.93 -19.06,20.78 -15.94,17.7 -37.68,42.39 -61.45,69.88 -23.76,27.47 -45.05,52.54 -60.27,70.86 -7.61,9.16 -13.7,16.63 -17.82,21.87 -4.12,5.24 -6.27,8.25 -6,8.48"
         style="fill:#dadbd8;fill-opacity:1;fill-rule:nonzero;stroke:none"
         id="path34" /><path
         d="m 3308.93,2211.54 c 0.27,0.24 3.65,-3.07 9.53,-9.27 6.48,-7.03 14.7,-15.93 24.51,-26.56 20.54,-22.57 48.63,-54.01 79.42,-88.93 30.81,-34.93 58.47,-66.75 78.3,-89.95 9.31,-11.07 17.11,-20.33 23.28,-27.66 5.41,-6.6 8.28,-10.37 8,-10.6 -0.27,-0.25 -3.64,3.06 -9.52,9.27 -6.49,7.03 -14.72,15.92 -24.52,26.55 -20.54,22.58 -48.63,54.01 -79.43,88.95 -30.79,34.92 -58.46,66.73 -78.28,89.94 -9.32,11.06 -17.12,20.33 -23.29,27.65 -5.41,6.61 -8.27,10.38 -8,10.61"
         style="fill:#dadbd8;fill-opacity:1;fill-rule:nonzero;stroke:none"
         id="path36" /><path
         d="m 3528.34,1966.12 c -0.07,0.35 4.82,1.68 13.72,3.78 9.87,2.26 22.54,5.17 37.73,8.66 31.83,7.32 75.78,17.58 123.98,30.23 48.23,12.6 91.58,25.12 122.92,34.38 14.94,4.39 27.41,8.05 37.13,10.91 8.78,2.53 13.7,3.77 13.81,3.43 0.11,-0.34 -4.58,-2.23 -13.19,-5.36 -8.59,-3.12 -21.11,-7.44 -36.66,-12.5 -31.09,-10.17 -74.37,-23.28 -122.69,-35.89 -48.29,-12.68 -92.46,-22.39 -124.53,-28.81 -16.05,-3.16 -29.07,-5.58 -38.1,-7.05 -9.02,-1.48 -14.05,-2.14 -14.12,-1.78"
         style="fill:#dadbd8;fill-opacity:1;fill-rule:nonzero;stroke:none"
         id="path38" /><path
         d="m 737.18,3900.22 c 26.156,15.12 58.871,16.25 87.804,7.55 28.934,-8.7 54.434,-26.44 76.536,-47.04 42.753,-39.86 70.222,-101.28 86.371,-157.46 -63.407,-13.89 -129.942,21.39 -162.575,41.4 -51.566,31.63 -125.558,120.12 -88.136,155.55"
         style="fill:#e7e8e5;fill-opacity:1;fill-rule:nonzero;stroke:none"
         id="path40" /><path
         d="m 1098.76,3691.91 c -31.04,13.25 -51.85,45.66 -54.89,79.27 -3.04,33.61 10.28,67.55 32.37,93.06 10.22,11.8 23.87,22.61 39.47,22.14 14.58,-0.43 27.45,-11.13 33.82,-24.26 6.37,-13.12 7.17,-28.27 6.05,-42.82 -3.86,-49.88 -16.74,-97.44 -56.82,-127.39"
         style="fill:#e7e8e5;fill-opacity:1;fill-rule:nonzero;stroke:none"
         id="path42" /><path
         d="m 1198.13,3532.5 c -0.27,-0.23 -3.32,2.76 -8.56,8.43 -5.24,5.66 -12.67,14 -21.48,24.64 -17.54,21.23 -40.82,52.14 -58.21,90.92 -17.6,38.8 -22.35,78.36 -18.73,105.98 1.63,13.85 4.64,24.78 7.39,32.04 2.75,7.26 4.79,11.04 5.06,10.93 1.08,-0.34 -6.53,-16.05 -8.78,-43.33 -2.6,-27.08 2.58,-65.48 19.81,-103.49 17.1,-38.15 39.6,-69.02 56.34,-90.75 7.98,-10.15 14.71,-18.72 20.14,-25.63 4.76,-6.06 7.29,-9.5 7.02,-9.74"
         style="fill:#dadbd8;fill-opacity:1;fill-rule:nonzero;stroke:none"
         id="path44" /><path
         d="m 799.473,3837.81 c 0.101,0.15 1.66,-0.71 4.523,-2.49 3.332,-2.16 7.43,-4.8 12.395,-8.01 10.718,-7.01 26.031,-17.46 44.8,-30.58 37.555,-26.23 88.657,-63.57 143.969,-106.28 55.32,-42.75 104.53,-82.52 139.9,-111.59 17.14,-14.28 31.23,-26.02 41.67,-34.71 4.46,-3.87 8.14,-7.06 11.15,-9.66 2.51,-2.25 3.77,-3.5 3.66,-3.64 -0.11,-0.14 -1.6,0.84 -4.33,2.83 -3.16,2.39 -7.04,5.33 -11.76,8.89 -10.69,8.38 -25.13,19.67 -42.7,33.42 -35.95,28.33 -85.5,67.63 -140.77,110.33 -55.265,42.68 -105.96,80.45 -142.933,107.41 -18.02,13.13 -32.836,23.92 -43.813,31.92 -4.742,3.52 -8.652,6.43 -11.836,8.8 -2.671,2.06 -4.023,3.21 -3.925,3.36"
         style="fill:#dadbd8;fill-opacity:1;fill-rule:nonzero;stroke:none"
         id="path46" /><path
         d="m 1077.33,3599.64 c -62.2,34.55 -141.428,36.41 -205.178,4.82 -16.234,-8.05 -33.418,-21.71 -32.121,-39.78 1.293,-18.1 20.364,-29.2 37.742,-34.43 72.301,-21.8 156.767,5.53 202.607,65.54"
         style="fill:#e7e8e5;fill-opacity:1;fill-rule:nonzero;stroke:none"
         id="path48" /><path
         d="m 920.566,3575.81 c -0.164,0.32 3.422,2.39 10.098,5.88 3.313,1.81 7.438,3.87 12.477,5.7 5,1.9 10.586,4.45 17.144,6.1 6.457,1.98 13.582,3.97 21.434,5.27 7.758,1.82 16.246,2.45 25.131,3.47 17.83,1.14 37.58,0.56 57.96,-2.71 20.39,-3.41 39.22,-9.33 55.81,-15.89 16.5,-6.83 30.72,-14.43 42.02,-21.79 5.83,-3.39 10.58,-7.25 14.92,-10.35 4.38,-3.07 7.89,-6.07 10.68,-8.59 5.66,-4.97 8.65,-7.83 8.42,-8.1 -0.67,-0.81 -13.11,10.25 -35.95,23.91 -11.39,6.86 -25.56,14 -41.87,20.46 -16.4,6.2 -34.9,11.87 -54.87,15.21 -19.99,3.21 -39.3,3.91 -56.8,3.05 -8.709,-0.86 -17.049,-1.31 -24.686,-2.91 -7.738,-1.09 -14.777,-2.85 -21.191,-4.57 -25.637,-6.99 -40.234,-15.17 -40.727,-14.14"
         style="fill:#dadbd8;fill-opacity:1;fill-rule:nonzero;stroke:none"
         id="path50" /><path
         d="m 3953.83,127.43 c 0,-1.442 -884.61,-2.598 -1975.58,-2.598 -1091.344,0 -1975.75781,1.156 -1975.75781,2.598 0,1.441 884.41381,2.601 1975.75781,2.601 1090.97,0 1975.58,-1.16 1975.58,-2.601"
         style="fill:#17282f;fill-opacity:1;fill-rule:nonzero;stroke:none"
         id="path52" /><path
         d="m 473.422,3142.05 c 0,0 1.453,-1.82 3.957,-5.37 2.613,-3.76 6.25,-9.01 10.937,-15.76 9.59,-14.03 23.461,-34.33 41.227,-60.33 l -0.32,-1.7 -0.711,-0.21 c -30.953,-0.01 -69.399,-0.04 -113.809,-0.06 l -1.39,-0.01 -1.458,1.46 0.215,0.76 0.004,0.01 2.637,-2.21 c -27.82,-25.17 -65.242,-47.37 -110.125,-57.74 -22.359,-5.07 -46.402,-7.7 -71.106,-5.73 -24.636,1.48 -50.179,6.23 -74.652,16.14 -24.535,9.6 -48.336,23.27 -69.7616,41.01 -21.4453,17.73 -40.0234,39.88 -54.7578,64.87 -29.51954,49.92 -41.81641,113.03 -29.65626,174.02 11.41406,56.85 42.63676,107.56 84.51176,142.52 42.0899,34.72 93.6059,54.58 143.6489,57.07 50.109,3.52 97.945,-9.34 136.742,-30.86 38.605,-22.17 68.984,-52.14 88.679,-84.41 20.106,-32.07 30.782,-65.28 35.098,-94.87 0.547,-3.7 1.082,-7.35 1.609,-10.92 0.469,-3.59 0.411,-7.16 0.637,-10.62 0.207,-6.96 0.863,-13.64 0.652,-20.06 -0.218,-12.83 -1.542,-24.51 -3.226,-34.9 -3.481,-20.8 -8.734,-36.39 -12.727,-46.69 -1.98,-5.15 -3.711,-9.07 -4.886,-11.55 -1.2,-2.52 -1.879,-3.86 -1.969,-3.86 -0.082,-0.01 0.398,1.31 1.453,3.99 1.066,2.71 2.598,6.57 4.422,11.79 3.656,10.37 8.558,25.96 11.703,46.63 1.516,10.34 2.676,21.93 2.75,34.63 0.133,6.35 -0.594,12.96 -0.863,19.84 -0.258,3.43 -0.239,6.96 -0.735,10.5 -0.554,3.53 -1.125,7.12 -1.703,10.78 -4.535,29.2 -15.32,61.87 -35.328,93.34 -19.59,31.67 -49.652,60.98 -87.668,82.61 -38.219,20.97 -85.183,33.43 -134.336,29.84 -49.078,-2.56 -99.484,-22.14 -140.6795,-56.19 -40.9727,-34.31 -71.5,-83.97 -82.67187,-139.61 -11.91016,-59.73 0.09375,-121.5 28.92577,-170.44 14.3984,-24.5 32.5703,-46.24 53.5508,-63.66 20.9728,-17.44 44.2658,-30.9 68.3008,-40.38 23.98,-9.8 49.02,-14.53 73.211,-16.07 24.254,-2.04 47.891,0.45 69.894,5.32 44.161,9.99 81.122,31.62 108.739,56.24 l 2.453,-0.12 0.183,-2.09 -0.003,-0.01 -2.625,2.22 c 2.746,0.97 3.847,0.52 5.277,0.69 l 4.187,0.08 c 2.766,0.02 5.508,0.03 8.231,0.05 5.422,-0.01 10.754,-0.02 15.984,-0.03 10.449,-0.07 20.5,-0.15 30.121,-0.21 19.211,-0.24 36.723,-0.46 52.34,-0.65 l -1.031,-1.91 c -17.43,26.47 -31.035,47.13 -40.441,61.42 -4.43,6.84 -7.868,12.14 -10.333,15.95 -2.296,3.6 -3.308,5.45 -3.308,5.45"
         style="fill:#17282f;fill-opacity:1;fill-rule:nonzero;stroke:none"
         id="path54" /><path
         d="m 267.539,3259.59 c 18.438,7.74 31.543,26.75 31.656,49.14 0.118,29.35 -22.09,53.24 -49.605,53.37 -27.504,0.13 -49.91,-23.56 -50.035,-52.9 -0.09,-22.61 13.113,-41.85 31.746,-49.61 -76.668,-11.55 -73.192,-94.87 -73.192,-94.87 l 181.297,-0.83 c 0,0 4.133,84.22 -71.867,95.7"
         style="fill:#f03d5f;fill-opacity:1;fill-rule:nonzero;stroke:none"
         id="path56" /><path
         d="m 1160.96,899.211 h 2368.99 v 3256.11 H 1160.96 Z"
         style="fill:#fafaf9;fill-opacity:1;fill-rule:nonzero;stroke:none"
         id="path58" /><path
         d="M 3131.63,2330.13 H 2115.2 v 169.24 h 1016.43 v -169.24"
         style="fill:#e7e8e5;fill-opacity:1;fill-rule:nonzero;stroke:none"
         id="path60" /><path
         d="m 2214.87,2436.43 c -16.48,0 -29.9,-13.42 -29.9,-29.91 0,-16.49 13.42,-29.91 29.9,-29.91 16.5,0 29.92,13.42 29.92,29.91 0,16.49 -13.42,29.91 -29.92,29.91 z m 0,-62.32 c -17.87,0 -32.4,14.54 -32.4,32.41 0,17.87 14.53,32.41 32.4,32.41 17.87,0 32.42,-14.54 32.42,-32.41 0,-17.87 -14.55,-32.41 -32.42,-32.41"
         style="fill:#17282f;fill-opacity:1;fill-rule:nonzero;stroke:none"
         id="path62" /><path
         d="m 2917.59,2403.78 c 0,-1.44 -135.01,-2.6 -301.52,-2.6 -166.55,0 -301.53,1.16 -301.53,2.6 0,1.44 134.98,2.6 301.53,2.6 166.51,0 301.52,-1.16 301.52,-2.6"
         style="fill:#17282f;fill-opacity:1;fill-rule:nonzero;stroke:none"
         id="path64" /><path
         d="m 1160.96,3264.52 h 2368.99 v 606.926 H 1160.96 Z"
         style="fill:#17282f;fill-opacity:1;fill-rule:nonzero;stroke:none"
         id="path66" /><path
         d="M 3529.95,3978.34 H 1160.96 v 176.98 h 2368.99 v -176.98"
         style="fill:#33535f;fill-opacity:1;fill-rule:nonzero;stroke:none"
         id="path68" /><path
         d="m 1268.41,4066.83 c 0,-13.15 -10.66,-23.81 -23.81,-23.81 -13.14,0 -23.8,10.66 -23.8,23.81 0,13.15 10.66,23.81 23.8,23.81 13.15,0 23.81,-10.66 23.81,-23.81"
         style="fill:#17282f;fill-opacity:1;fill-rule:nonzero;stroke:none"
         id="path70" /><path
         d="m 1446.7,4071.95 c 0,-13.15 -10.65,-23.81 -23.8,-23.81 -13.15,0 -23.81,10.66 -23.81,23.81 0,13.15 10.66,23.8 23.81,23.8 13.15,0 23.8,-10.65 23.8,-23.8"
         style="fill:#17282f;fill-opacity:1;fill-rule:nonzero;stroke:none"
         id="path72" /><path
         d="m 1361.91,4071.95 c 0,-13.15 -10.66,-23.81 -23.81,-23.81 -13.14,0 -23.8,10.66 -23.8,23.81 0,13.15 10.66,23.8 23.8,23.8 13.15,0 23.81,-10.65 23.81,-23.8"
         style="fill:#17282f;fill-opacity:1;fill-rule:nonzero;stroke:none"
         id="path74" /><path
         d="M 3529.95,3871.44 H 1160.96 v 106.9 h 2368.99 v -106.9"
         style="fill:#dadbd8;fill-opacity:1;fill-rule:nonzero;stroke:none"
         id="path76" /><path
         d="m 1975.14,2864.18 c 0,-1.44 -79.32,-2.6 -177.14,-2.6 -97.85,0 -177.15,1.16 -177.15,2.6 0,1.43 79.3,2.6 177.15,2.6 97.82,0 177.14,-1.17 177.14,-2.6"
         style="fill:#17282f;fill-opacity:1;fill-rule:nonzero;stroke:none"
         id="path78" /><path
         d="m 1975.14,2780.99 c 0,-1.43 -79.32,-2.6 -177.14,-2.6 -97.85,0 -177.15,1.17 -177.15,2.6 0,1.44 79.3,2.61 177.15,2.61 97.82,0 177.14,-1.17 177.14,-2.61"
         style="fill:#17282f;fill-opacity:1;fill-rule:nonzero;stroke:none"
         id="path80" /><path
         d="m 1821.82,2712.22 c 0,-1.43 -44.99,-2.6 -100.49,-2.6 -55.5,0 -100.48,1.17 -100.48,2.6 0,1.45 44.98,2.61 100.48,2.61 55.5,0 100.49,-1.16 100.49,-2.61"
         style="fill:#17282f;fill-opacity:1;fill-rule:nonzero;stroke:none"
         id="path82" /><path
         d="M 3136.12,2893.11 H 2125.33 v 266.46 h 1010.79 v -266.46"
         style="fill:#e7e8e5;fill-opacity:1;fill-rule:nonzero;stroke:none"
         id="path84" /><path
         d="m 2267.45,2764.8 c 0,-29.04 -23.54,-52.58 -52.58,-52.58 -29.03,0 -52.57,23.54 -52.57,52.58 0,29.04 23.54,52.58 52.57,52.58 29.04,0 52.58,-23.54 52.58,-52.58"
         style="fill:#dadbd8;fill-opacity:1;fill-rule:nonzero;stroke:none"
         id="path86" /><path
         d="m 3131.63,2802.56 c 0,-1.44 -169.32,-2.61 -378.15,-2.61 -208.9,0 -378.19,1.17 -378.19,2.61 0,1.44 169.29,2.6 378.19,2.6 208.83,0 378.15,-1.16 378.15,-2.6"
         style="fill:#17282f;fill-opacity:1;fill-rule:nonzero;stroke:none"
         id="path88" /><path
         d="m 2767.45,2727.53 c 0,-1.44 -87.79,-2.61 -196.06,-2.61 -108.32,0 -196.1,1.17 -196.1,2.61 0,1.43 87.78,2.6 196.1,2.6 108.27,0 196.06,-1.17 196.06,-2.6"
         style="fill:#17282f;fill-opacity:1;fill-rule:nonzero;stroke:none"
         id="path90" /><path
         d="m 3131.63,2614.72 h -201.19 v 27.7 h 201.19 v -27.7"
         style="fill:#f03d5f;fill-opacity:1;fill-rule:nonzero;stroke:none"
         id="path92" /><path
         d="m 3131.63,1970.09 h -201.19 v 27.69 h 201.19 v -27.69"
         style="fill:#f03d5f;fill-opacity:1;fill-rule:nonzero;stroke:none"
         id="path94" /><path
         d="m 2930.44,2245.51 c 0,-1.44 -176.16,-2.6 -393.43,-2.6 -217.34,0 -393.47,1.16 -393.47,2.6 0,1.44 176.13,2.6 393.47,2.6 217.27,0 393.43,-1.16 393.43,-2.6"
         style="fill:#17282f;fill-opacity:1;fill-rule:nonzero;stroke:none"
         id="path96" /><path
         d="m 2930.44,2178.01 c 0,-1.44 -176.16,-2.61 -393.43,-2.61 -217.34,0 -393.47,1.17 -393.47,2.61 0,1.44 176.13,2.6 393.47,2.6 217.27,0 393.43,-1.16 393.43,-2.6"
         style="fill:#17282f;fill-opacity:1;fill-rule:nonzero;stroke:none"
         id="path98" /><path
         d="m 2930.44,2110.5 c 0,-1.43 -176.16,-2.61 -393.43,-2.61 -217.34,0 -393.47,1.18 -393.47,2.61 0,1.44 176.13,2.61 393.47,2.61 217.27,0 393.43,-1.17 393.43,-2.61"
         style="fill:#17282f;fill-opacity:1;fill-rule:nonzero;stroke:none"
         id="path100" /><path
         d="m 2396.44,1989 c 0,-1.45 -54.94,-2.61 -122.69,-2.61 -67.76,0 -122.69,1.16 -122.69,2.61 0,1.43 54.93,2.59 122.69,2.59 67.75,0 122.69,-1.16 122.69,-2.59"
         style="fill:#17282f;fill-opacity:1;fill-rule:nonzero;stroke:none"
         id="path102" /><path
         d="M 3131.63,1210.09 H 2115.2 v 608.59 h 1016.43 v -608.59"
         style="fill:#33535f;fill-opacity:1;fill-rule:nonzero;stroke:none"
         id="path104" /><path
         d="m 2115.2,1210.09 421.79,275.99 129.27,-91.99 264.18,176.91 201.19,-155.68 V 1210.09 H 2115.2"
         style="fill:#17282f;fill-opacity:1;fill-rule:nonzero;stroke:none"
         id="path106" /><path
         d="m 2767.47,1609.36 c 0,-39.78 -32.24,-72.02 -72.03,-72.02 -39.78,0 -72.02,32.24 -72.02,72.02 0,39.78 32.24,72.03 72.02,72.03 39.79,0 72.03,-32.25 72.03,-72.03"
         style="fill:#17282f;fill-opacity:1;fill-rule:nonzero;stroke:none"
         id="path108" /><path
         d="m 1705.63,2452.07 h -105.88 v 105.88 h 105.88 v -105.88"
         style="fill:#dadbd8;fill-opacity:1;fill-rule:nonzero;stroke:none"
         id="path110" /><path
         d="m 1834.45,2452.07 h -105.88 v 105.88 h 105.88 v -105.88"
         style="fill:#e7e8e5;fill-opacity:1;fill-rule:nonzero;stroke:none"
         id="path112" /><path
         d="m 1964.31,2452.07 h -105.88 v 105.88 h 105.88 v -105.88"
         style="fill:#e7e8e5;fill-opacity:1;fill-rule:nonzero;stroke:none"
         id="path114" /><path
         d="m 1705.63,2325.53 h -105.88 v 105.88 h 105.88 v -105.88"
         style="fill:#e7e8e5;fill-opacity:1;fill-rule:nonzero;stroke:none"
         id="path116" /><path
         d="m 1834.45,2325.53 h -105.88 v 105.88 h 105.88 v -105.88"
         style="fill:#f3f2f1;fill-opacity:1;fill-rule:nonzero;stroke:none"
         id="path118" /><path
         d="m 1964.31,2325.53 h -105.88 v 105.88 h 105.88 v -105.88"
         style="fill:#dadbd8;fill-opacity:1;fill-rule:nonzero;stroke:none"
         id="path120" /><path
         d="m 1705.63,2198.99 h -105.88 v 105.87 h 105.88 v -105.87"
         style="fill:#dadbd8;fill-opacity:1;fill-rule:nonzero;stroke:none"
         id="path122" /><path
         d="m 1834.45,2198.99 h -105.88 v 105.87 h 105.88 v -105.87"
         style="fill:#e7e8e5;fill-opacity:1;fill-rule:nonzero;stroke:none"
         id="path124" /><path
         d="m 1964.31,2198.99 h -105.88 v 105.87 h 105.88 v -105.87"
         style="fill:#dadbd8;fill-opacity:1;fill-rule:nonzero;stroke:none"
         id="path126" /><path
         d="m 2092.75,3147.99 -587.44,-3.59 -3.59,587.44 587.44,3.59 3.59,-587.44"
         style="fill:#f03d5f;fill-opacity:1;fill-rule:nonzero;stroke:none"
         id="path128" /><path
         d="m 1929.79,3409.24 c -0.01,0 -0.02,0 -0.02,0 -2.48,0 -4.96,0.85 -6.98,2.58 -0.03,0.02 -0.06,0.05 -0.09,0.07 -0.03,0.04 -0.07,0.07 -0.11,0.1 -2.37,2.13 -3.58,5.07 -3.59,8.03 0,2.56 0.91,5.14 2.76,7.21 0.02,0.02 0.05,0.05 0.07,0.07 0.09,0.11 0.19,0.21 0.29,0.31 2.09,2.12 4.86,3.2 7.64,3.21 0.01,0 0.03,0 0.04,0 0,0 0.01,0 0.02,0 2.4,-0.01 4.82,-0.81 6.81,-2.44 0.02,-0.02 0.04,-0.04 0.05,-0.05 0.11,-0.09 0.21,-0.18 0.31,-0.26 v 0 c 2.37,-2.14 3.58,-5.08 3.59,-8.03 0,-2.57 -0.91,-5.15 -2.75,-7.21 v 0 c -0.03,-0.03 -0.06,-0.06 -0.09,-0.1 -0.03,-0.03 -0.05,-0.05 -0.08,-0.08 -2.1,-2.24 -4.94,-3.39 -7.8,-3.41 -0.03,0 -0.05,0 -0.07,0"
         style="fill:#da314b;fill-opacity:1;fill-rule:nonzero;stroke:none"
         id="path130" /><path
         d="m 1950.7,3432.99 c -0.08,0 -0.17,0.01 -0.27,0.02 0,0 0,0 -0.01,0 -0.05,0.01 -0.11,0.02 -0.17,0.03 -0.01,0 -0.02,0.01 -0.04,0.01 -0.91,0.18 -2.32,0.79 -4.15,1.5 0,0 0,0 -0.01,0 -0.55,0.22 -1.15,0.45 -1.78,0.67 v 0 c -3.09,1.1 -7.04,2.21 -11.57,2.23 -0.03,0 -0.07,0 -0.11,0 v 0 0 c -0.01,0 -0.03,0 -0.04,0 v 0 c -0.07,0 -0.13,0 -0.2,0 -0.06,0 -0.12,0 -0.18,0 v 0 0 0 c -0.02,0 -0.04,0 -0.05,0 -2.38,0 -4.61,-0.31 -6.62,-0.75 -1.76,-0.39 -3.37,-0.88 -4.79,-1.37 -0.66,-0.23 -1.29,-0.46 -1.87,-0.68 -2.1,-0.79 -3.64,-1.44 -4.49,-1.44 -0.13,0 -0.24,0.02 -0.33,0.05 -0.08,0.02 -0.14,0.06 -0.19,0.1 -0.01,0.01 -0.02,0.02 -0.03,0.03 0,0 -0.01,0.01 -0.02,0.02 -0.09,0.1 -0.14,0.24 -0.13,0.42 0.01,0.93 1.25,2.89 3.95,4.97 0.07,0.06 0.14,0.11 0.21,0.16 0.03,0.02 0.06,0.05 0.09,0.07 v 0 c 0.06,0.05 0.12,0.09 0.18,0.13 3.18,2.32 8.32,4.45 14.3,4.47 0.01,0 0.03,0 0.05,0 0.05,0 0.1,0 0.15,0 6.38,-0.04 11.8,-2.5 14.93,-5.01 2.67,-2.1 3.89,-4.08 3.89,-5.01 0,-0.19 -0.05,-0.33 -0.14,-0.42 -0.01,-0.01 -0.02,-0.02 -0.02,-0.03 -0.12,-0.11 -0.3,-0.17 -0.53,-0.17 0,0 0,0 -0.01,0"
         style="fill:#da314b;fill-opacity:1;fill-rule:nonzero;stroke:none"
         id="path132" /><path
         d="m 1821.23,3403.49 c 0,0 -0.01,0 -0.02,0 -1.9,0.01 -3.82,0.51 -5.56,1.57 -3.34,2.03 -5.19,5.58 -5.19,9.23 -0.01,1.9 0.5,3.84 1.56,5.59 v 0 c 0.1,0.15 0.19,0.3 0.29,0.45 2.06,3.05 5.44,4.72 8.9,4.74 0.02,0 0.03,0 0.04,0 0.01,0 0.02,0 0.03,0 1.75,0 3.52,-0.43 5.14,-1.32 0.01,-0.01 0.02,-0.01 0.02,-0.02 0.08,-0.04 0.15,-0.08 0.23,-0.12 0.01,-0.01 0.02,-0.02 0.03,-0.02 0.05,-0.03 0.1,-0.06 0.14,-0.09 v 0 c 3.34,-2.02 5.19,-5.58 5.2,-9.22 0,-1.91 -0.51,-3.84 -1.57,-5.6 -0.02,-0.03 -0.04,-0.06 -0.06,-0.1 -2.04,-3.26 -5.54,-5.08 -9.13,-5.09 -0.02,0 -0.03,0 -0.05,0"
         style="fill:#da314b;fill-opacity:1;fill-rule:nonzero;stroke:none"
         id="path134" /><path
         d="m 1839.63,3423.3 c -0.09,0 -0.18,0.01 -0.27,0.02 -0.01,0 -0.03,0 -0.04,0 -0.05,0.01 -0.1,0.02 -0.15,0.03 -0.01,0 -0.02,0.01 -0.03,0.01 -1.2,0.24 -3.25,1.2 -5.95,2.17 v 0 c -3.11,1.11 -7.08,2.22 -11.62,2.23 -0.02,0 -0.04,0 -0.06,0 v 0 0 c -0.01,0 -0.03,0 -0.04,0 v 0 c -0.07,0 -0.13,0 -0.2,0 -0.06,0 -0.12,0 -0.18,0 v 0 0 0 c -0.02,0 -0.04,0 -0.05,0 -4.46,-0.01 -8.35,-1.06 -11.41,-2.12 v 0 0 c -3.06,-1.06 -5.28,-2.12 -6.35,-2.12 -0.11,0 -0.22,0.01 -0.3,0.03 -0.09,0.03 -0.17,0.07 -0.23,0.13 -0.01,0 -0.01,0 -0.01,0.01 -0.01,0.01 -0.02,0.02 -0.03,0.03 -0.1,0.09 -0.14,0.24 -0.14,0.42 0.01,0.93 1.25,2.9 3.95,4.97 0.07,0.06 0.15,0.12 0.22,0.18 v 0 c 3.17,2.38 8.43,4.64 14.58,4.65 0.02,0 0.03,0 0.05,0 0.04,0 0.09,0 0.13,0 6.38,-0.04 11.8,-2.5 14.93,-5.01 2.67,-2.11 3.89,-4.09 3.89,-5.02 0,-0.18 -0.04,-0.32 -0.13,-0.41 -0.01,-0.02 -0.02,-0.02 -0.03,-0.03 -0.12,-0.11 -0.29,-0.17 -0.53,-0.17 v 0"
         style="fill:#da314b;fill-opacity:1;fill-rule:nonzero;stroke:none"
         id="path136" /><path
         d="m 1888.79,3338.6 c -0.01,0 -0.01,0 -0.02,0 -4.45,0 -7,0.24 -7.04,0.74 0,0 0,0.01 0,0.02 0.02,0.8 6.32,2.11 16.52,3.59 2.68,0.3 4.77,0.92 4.96,2.36 0.08,0.27 0.11,0.57 0.11,0.89 0,1.68 -0.92,4.1 -2.07,6.76 -2.68,6.75 -5.39,13.59 -8.22,20.74 -10.43,27.13 -18.02,49.93 -18.03,53.94 -0.01,0.35 0.05,0.56 0.18,0.61 0.01,0.01 0.03,0.01 0.05,0.01 v 0 c 1.66,0 11.57,-22.28 22.5,-50.59 0.01,-0.01 0.01,-0.01 0.01,-0.02 0.03,-0.08 0.06,-0.15 0.09,-0.23 0.03,-0.08 0.06,-0.15 0.09,-0.22 0.18,-0.47 0.36,-0.94 0.54,-1.41 2.69,-7.21 5.26,-14.1 7.79,-20.9 0.75,-2.32 2,-4.93 2,-7.95 0.01,-1.01 -0.13,-2.06 -0.47,-3.17 -0.72,-2.22 -2.82,-3.82 -4.59,-4.3 -1.76,-0.54 -3.27,-0.56 -4.56,-0.63 -0.16,0 -0.33,-0.01 -0.49,-0.02 -3.64,-0.14 -6.78,-0.22 -9.31,-0.22 -0.01,0 -0.02,0 -0.04,0"
         style="fill:#da314b;fill-opacity:1;fill-rule:nonzero;stroke:none"
         id="path138" /><path
         d="m 1875.48,3193.96 c -0.01,0 -0.02,0 -0.03,0 -63.52,0.02 -83.92,46.84 -83.92,46.84 v 0 c 0.19,-0.12 0.38,-0.23 0.57,-0.35 0.12,-0.07 0.24,-0.15 0.36,-0.22 38.88,-23.78 75.68,-26.49 89.9,-26.54 0.15,0 0.29,0 0.43,0 v 0 0 0 c 3.71,0 5.76,0.18 5.76,0.18 l 0.01,-1.05 v 0 l 0.12,-7.67 0.16,-10.53 v 0 c -4.65,-0.45 -9.1,-0.66 -13.36,-0.66 v 0"
         style="fill:#f1496c;fill-opacity:1;fill-rule:nonzero;stroke:none"
         id="path140" /><path
         d="m 1696.18,3145.56 -9.58,204.14 c -2.4,-0.4 -5.39,-0.7 -8.69,-0.7 -15.1,0 -36.75,6.35 -38.01,39.27 -0.91,23.98 9.74,33.38 21.36,36.64 v 0 0 c 0.04,0.02 0.08,0.03 0.12,0.04 0.04,0.01 0.07,0.02 0.1,0.03 0.05,0.01 0.11,0.03 0.17,0.04 0.07,0.02 0.15,0.04 0.22,0.06 3.83,1.01 7.72,1.38 11.33,1.38 0.03,0 0.06,0 0.09,0 0.01,0 0.02,0 0.02,0 3.45,0 6.63,-0.33 9.23,-0.75 0.16,-0.02 0.33,-0.05 0.49,-0.08 3.46,-0.58 5.82,-1.25 6.08,-1.37 0,0 0.74,-15.61 1.52,-32.38 l 0.61,0.42 0.11,0.15 c 18.44,0.96 21.81,30.83 21.81,52.58 0,12.57 -1.12,22.43 -1.12,22.43 37.19,14.63 36.1,54.45 45.37,62.97 0.02,0.03 0.05,0.05 0.07,0.07 0.05,0.05 0.1,0.09 0.16,0.13 2.98,2.52 9.28,3.73 17.72,3.73 h 0.01 c 0.54,0 1.08,-0.01 1.63,-0.02 18.37,-0.32 45.94,-5.96 71.73,-15.88 0.05,-0.02 0.1,-0.04 0.15,-0.06 0.28,-0.1 0.55,-0.21 0.83,-0.32 0.01,-0.01 0.02,-0.01 0.03,-0.01 0.39,-0.16 0.78,-0.31 1.17,-0.46 0.34,-0.13 0.67,-0.27 1.01,-0.41 0.13,-0.04 0.26,-0.09 0.38,-0.15 v 0 c 0.1,-0.03 0.19,-0.07 0.29,-0.11 0.18,-0.07 0.35,-0.14 0.53,-0.21 0.13,-0.05 0.25,-0.1 0.38,-0.16 19.39,-7.62 36.94,-10.22 51.84,-10.23 0.02,0 0.04,0 0.06,0 v 0 0 c 0.01,0 0.02,0 0.02,0 20.52,0.01 36,4.92 44.29,8.34 0.03,0.01 0.06,0.02 0.09,0.03 0.1,0.05 0.2,0.09 0.3,0.13 0.05,0.02 0.09,0.04 0.14,0.06 0.04,0.01 0.07,0.03 0.11,0.05 l 0.53,-0.4 1.02,0.65 c 3.92,-51.8 11.57,-160.7 11.23,-216.11 -0.46,-73.55 -73.12,-86.03 -74.57,-86.27 v 0 l -0.01,1.05 c 0,0 -2.05,-0.18 -5.76,-0.18 v 0 c -0.14,0 -0.28,0 -0.43,0 -14.22,0.05 -51.02,2.77 -89.9,26.54 -0.12,0.07 -0.24,0.15 -0.36,0.22 -0.19,0.12 -0.38,0.23 -0.57,0.35 v 0 0 0 c 0,0 20.4,-46.83 83.92,-46.84 0.01,0 0.02,0 0.03,0 v 0 0 0 c 4.26,0 8.71,0.21 13.36,0.66 v 0 l 0.3,-7.38 c 0.41,-13.78 0.68,-24.94 -0.05,-40.49 l -99.49,-0.61 -93.42,-0.57 m 183.77,165.34 v 0 c 0.01,0 0.02,0 0.03,0 7.69,0.01 12.91,2.57 12.47,3.41 0,0.01 0,0.01 0,0.02 -0.37,1.47 -10.83,-0.68 -22.63,3.52 v 0 c -0.14,0.05 -0.28,0.09 -0.42,0.14 -0.17,0.05 -0.34,0.11 -0.51,0.18 -10.71,3.78 -17.22,10.82 -18.89,10.82 v 0 0 0 c -0.1,0 -0.18,-0.03 -0.25,-0.08 v 0 c -0.11,-0.05 -0.17,-0.18 -0.17,-0.38 0.01,-2.06 6.11,-11.44 18.55,-15.61 0.11,-0.04 0.22,-0.08 0.33,-0.12 0.06,-0.01 0.11,-0.03 0.17,-0.05 v 0 c 4.06,-1.35 7.91,-1.84 11.28,-1.85 0.02,0 0.03,0 0.04,0 v 0 m 8.84,27.69 v 0 c 0.02,0 0.03,0 0.04,0 2.53,0 5.67,0.08 9.31,0.22 0.16,0.01 0.33,0.02 0.49,0.02 1.29,0.07 2.8,0.09 4.56,0.63 1.77,0.48 3.87,2.08 4.59,4.3 0.34,1.11 0.48,2.16 0.47,3.17 0,3.02 -1.25,5.63 -2,7.95 -2.53,6.8 -5.1,13.69 -7.79,20.9 -0.18,0.47 -0.36,0.94 -0.54,1.41 -0.03,0.07 -0.06,0.14 -0.09,0.22 -0.03,0.08 -0.06,0.15 -0.09,0.23 0,0.01 0,0.01 -0.01,0.02 -10.93,28.31 -20.84,50.59 -22.5,50.59 v 0 0 0 c -0.02,0 -0.04,0 -0.05,-0.01 -0.13,-0.05 -0.19,-0.26 -0.18,-0.61 0.01,-4.01 7.6,-26.81 18.03,-53.94 2.83,-7.15 5.54,-13.99 8.22,-20.74 1.15,-2.66 2.07,-5.08 2.07,-6.76 0,-0.32 -0.03,-0.62 -0.11,-0.89 -0.19,-1.44 -2.28,-2.06 -4.96,-2.36 -10.2,-1.48 -16.5,-2.79 -16.52,-3.59 0,-0.01 0,-0.02 0,-0.02 0.04,-0.5 2.59,-0.74 7.04,-0.74 0.01,0 0.01,0 0.02,0 v 0 m -219.86,26.96 v 0 c 0.01,0 0.02,0 0.03,0 2.31,0.01 4.21,0.8 5.39,1.68 0.03,0.03 0.06,0.05 0.1,0.07 0.02,0.02 0.04,0.04 0.07,0.06 0.04,0.03 0.08,0.06 0.12,0.1 v 0 c 1.24,1.07 1.62,2.02 1.62,2.39 0,0.09 -0.02,0.14 -0.05,0.15 v 0 c -0.01,0.01 -0.01,0.01 -0.01,0.01 -0.01,0 -0.01,0 -0.01,0 -0.01,0 -0.01,0.01 -0.01,0.01 -0.01,0 -0.02,0 -0.03,0 h -0.01 v 0 0 c -0.25,0 -0.79,-0.58 -1.86,-1.19 -0.02,-0.02 -0.04,-0.03 -0.06,-0.04 -0.03,-0.02 -0.05,-0.03 -0.08,-0.05 -0.03,-0.01 -0.06,-0.03 -0.09,-0.04 -0.06,-0.03 -0.11,-0.07 -0.17,-0.09 -0.02,-0.01 -0.03,-0.02 -0.05,-0.03 -0.89,-0.44 -2.19,-0.82 -3.68,-0.82 -0.01,0 -0.02,0 -0.04,0 v 0 c -0.89,0 -1.85,0.13 -2.84,0.46 -5.44,1.76 -10.28,10.11 -10.87,19.25 -0.05,0.65 -0.07,1.29 -0.07,1.93 0,3.92 0.77,7.65 2.06,10.83 1.41,3.78 3.72,6.46 6.4,7.05 0.03,0.01 0.07,0.02 0.11,0.03 0.04,0.01 0.08,0.02 0.12,0.03 0.38,0.08 0.74,0.12 1.08,0.12 0.01,0 0.01,0 0.02,0 0.02,0 0.04,0 0.07,0 1.94,-0.03 3.36,-1.27 3.91,-2.41 v 0 c 0.73,-1.4 0.45,-2.42 0.72,-2.5 v 0 c 0.01,0 0.01,-0.01 0.02,-0.01 0,0 0.01,0 0.01,0 v 0 0 c 0.09,0 0.3,0.2 0.46,0.59 0.17,0.41 0.3,1.06 0.17,1.91 0,0 0,0 0,0.01 0,0.04 -0.01,0.08 -0.02,0.12 0,0 0,0 0,0.01 0,0.02 -0.01,0.05 -0.01,0.08 -0.02,0.09 -0.04,0.18 -0.06,0.27 -0.25,1 -0.89,2.17 -2.12,3.1 -0.06,0.05 -0.12,0.09 -0.18,0.13 -0.01,0 -0.01,0.01 -0.01,0.01 -0.97,0.66 -2.23,1.04 -3.58,1.05 -0.02,0 -0.04,0 -0.07,0 v 0 0 h -0.01 c -0.36,0 -0.73,-0.03 -1.09,-0.08 v 0 c -3.91,-0.42 -7.29,-4.16 -8.94,-8.22 -1.62,-3.56 -2.59,-7.78 -2.59,-12.22 -0.01,-0.68 0.02,-1.37 0.06,-2.06 0.71,-10.21 6.32,-19.59 13.74,-21.43 0.09,-0.02 0.18,-0.04 0.27,-0.06 0.72,-0.14 1.4,-0.2 2.06,-0.2 v 0 0 m 152.3,37.93 v 0 c 0.02,0 0.03,0 0.05,0 3.59,0.01 7.09,1.83 9.13,5.09 0.02,0.04 0.04,0.07 0.06,0.1 1.06,1.76 1.57,3.69 1.57,5.6 -0.01,3.64 -1.86,7.2 -5.2,9.22 v 0 c -0.04,0.03 -0.09,0.06 -0.14,0.09 -0.01,0 -0.02,0.01 -0.03,0.02 -0.08,0.04 -0.15,0.08 -0.23,0.12 0,0.01 -0.01,0.01 -0.02,0.02 -1.62,0.89 -3.39,1.32 -5.14,1.32 -0.01,0 -0.02,0 -0.03,0 v 0 0 c -0.01,0 -0.02,0 -0.04,0 -3.46,-0.02 -6.84,-1.69 -8.9,-4.74 -0.1,-0.15 -0.19,-0.3 -0.29,-0.45 v 0 c -1.06,-1.75 -1.57,-3.69 -1.56,-5.59 0,-3.65 1.85,-7.2 5.19,-9.23 1.74,-1.06 3.66,-1.56 5.56,-1.57 0.01,0 0.02,0 0.02,0 v 0 m 108.56,5.75 v 0 c 0.02,0 0.04,0 0.07,0 2.86,0.02 5.7,1.17 7.8,3.41 0.03,0.03 0.05,0.05 0.08,0.08 0.03,0.04 0.06,0.07 0.09,0.1 v 0 c 1.84,2.06 2.75,4.64 2.75,7.21 -0.01,2.95 -1.22,5.89 -3.59,8.03 v 0 c -0.1,0.08 -0.2,0.17 -0.31,0.26 -0.01,0.01 -0.03,0.03 -0.05,0.05 -1.99,1.63 -4.4,2.43 -6.81,2.44 -0.01,0 -0.02,0 -0.02,0 v 0 0 c -0.01,0 -0.03,0 -0.04,0 -2.78,-0.01 -5.55,-1.09 -7.64,-3.21 -0.1,-0.1 -0.2,-0.2 -0.29,-0.31 -0.02,-0.02 -0.05,-0.05 -0.07,-0.07 -1.85,-2.07 -2.76,-4.65 -2.76,-7.21 0.01,-2.96 1.22,-5.9 3.59,-8.03 0.04,-0.03 0.08,-0.06 0.11,-0.1 0.03,-0.02 0.06,-0.05 0.09,-0.07 2.02,-1.73 4.5,-2.58 6.98,-2.58 0,0 0.01,0 0.02,0 v 0 m -90.16,14.06 v 0 0 c 0.24,0 0.41,0.06 0.53,0.17 0.01,0.01 0.02,0.01 0.03,0.03 0.09,0.09 0.13,0.23 0.13,0.41 0,0.93 -1.22,2.91 -3.89,5.02 -3.13,2.51 -8.55,4.97 -14.93,5.01 -0.04,0 -0.09,0 -0.13,0 v 0 0 c -0.02,0 -0.03,0 -0.05,0 -6.15,-0.01 -11.41,-2.27 -14.58,-4.65 v 0 c -0.07,-0.06 -0.15,-0.12 -0.22,-0.18 -2.7,-2.07 -3.94,-4.04 -3.95,-4.97 0,-0.18 0.04,-0.33 0.14,-0.42 0.01,-0.01 0.02,-0.02 0.03,-0.03 0,-0.01 0,-0.01 0.01,-0.01 0.06,-0.06 0.14,-0.1 0.23,-0.13 0.08,-0.02 0.19,-0.03 0.3,-0.03 1.07,0 3.29,1.06 6.35,2.12 v 0 0 c 3.06,1.06 6.95,2.11 11.41,2.12 0.01,0 0.03,0 0.05,0 v 0 c 0.06,0 0.12,0 0.18,0 0.07,0 0.13,0 0.2,0 v 0 c 0.01,0 0.03,0 0.04,0 0.02,0 0.04,0 0.06,0 4.54,-0.01 8.51,-1.12 11.62,-2.23 v 0 c 2.7,-0.97 4.75,-1.93 5.95,-2.17 0.01,0 0.02,-0.01 0.03,-0.01 0.05,-0.01 0.1,-0.02 0.15,-0.03 0.01,0 0.03,0 0.04,0 0.09,-0.01 0.18,-0.02 0.27,-0.02 v 0 m 111.07,9.69 v 0 c 0.01,0 0.01,0 0.01,0 0.23,0 0.41,0.06 0.53,0.17 0,0.01 0.01,0.02 0.02,0.03 0.09,0.09 0.14,0.23 0.14,0.42 0,0.93 -1.22,2.91 -3.89,5.01 -3.13,2.51 -8.55,4.97 -14.93,5.01 -0.05,0 -0.1,0 -0.15,0 v 0 0 c -0.02,0 -0.04,0 -0.05,0 -5.98,-0.02 -11.12,-2.15 -14.3,-4.47 -0.06,-0.04 -0.12,-0.08 -0.18,-0.13 v 0 c -0.03,-0.02 -0.06,-0.05 -0.09,-0.07 -0.07,-0.05 -0.14,-0.1 -0.21,-0.16 -2.7,-2.08 -3.94,-4.04 -3.95,-4.97 -0.01,-0.18 0.04,-0.32 0.13,-0.42 0.01,-0.01 0.02,-0.02 0.02,-0.02 0.01,-0.01 0.02,-0.02 0.03,-0.03 0.05,-0.04 0.11,-0.08 0.19,-0.1 0.09,-0.03 0.2,-0.05 0.33,-0.05 0.85,0 2.39,0.65 4.49,1.44 0.58,0.22 1.21,0.45 1.87,0.68 1.42,0.49 3.03,0.98 4.79,1.37 2.01,0.44 4.24,0.75 6.62,0.75 0.01,0 0.03,0 0.05,0 v 0 c 0.06,0 0.12,0 0.18,0 0.07,0 0.13,0 0.2,0 v 0 c 0.01,0 0.03,0 0.04,0 0.04,0 0.08,0 0.11,0 4.53,-0.02 8.48,-1.13 11.57,-2.23 v 0 c 0.63,-0.22 1.23,-0.45 1.78,-0.67 0.01,0 0.01,0 0.01,0 1.83,-0.71 3.24,-1.32 4.15,-1.5 0.02,0 0.03,-0.01 0.04,-0.01 0.06,-0.01 0.12,-0.02 0.17,-0.03 0.01,0 0.01,0 0.01,0 0.1,-0.01 0.19,-0.02 0.27,-0.02 v 0 m -45.86,15.52 v 0 c 4.11,0 11.31,1.48 19.54,1.81 v 0 0 c 0.19,0.02 0.37,0.03 0.55,0.04 2.02,0.11 3.99,0.14 5.86,0.14 0.01,0 0.02,0 0.03,0 0.01,0 0.02,0 0.03,0 1.01,0 1.98,-0.01 2.92,-0.02 0.81,-0.02 1.59,-0.03 2.34,-0.05 0.49,-0.01 0.97,-0.02 1.44,-0.03 1.09,-0.02 2.11,-0.04 3.05,-0.04 0,0 0.01,0 0.02,0 v 0 0 c 0.01,0 0.02,0 0.03,0 3.56,0 5.97,0.25 6.62,1.43 0.02,0.03 0.04,0.07 0.05,0.11 v 0 0 c 1.25,2.34 -7.85,8.87 -21.22,8.89 -0.01,0 -0.03,0 -0.04,0 v 0 0 0 c -0.72,0 -1.46,-0.02 -2.2,-0.06 v 0 c -13.56,-0.66 -22.66,-7.73 -22.62,-10.59 0,-0.21 0.06,-0.4 0.17,-0.57 0.01,-0.01 0.01,-0.03 0.02,-0.04 0.47,-0.75 1.65,-1.02 3.4,-1.02 h 0.01 v 0 m -97.11,4.41 v 0 c 0.01,0 0.01,0 0.01,0 0.98,0 1.99,0.02 3.02,0.06 6.64,0.32 12.79,1.85 16.93,4.08 3.54,1.89 5.34,4.17 5.34,5.53 0.01,0.25 -0.06,0.47 -0.18,0.64 -0.01,0.02 -0.01,0.03 -0.02,0.04 -0.02,0.03 -0.04,0.05 -0.06,0.08 -0.57,0.7 -1.8,0.88 -3.57,0.88 h -0.01 v 0 0 c -0.02,0 -0.03,0 -0.05,0 -0.31,0 -0.63,0 -0.97,-0.01 v 0 c -0.79,-0.02 -1.65,-0.06 -2.6,-0.1 v 0 c -6.72,-0.32 -11.18,-0.54 -15.35,-0.74 -12.23,-0.54 -22.69,-1.95 -22.85,-4.91 v 0 c 0,-0.02 0,-0.04 0,-0.06 -0.02,-2.55 8.62,-5.48 20.32,-5.49 0.01,0 0.03,0 0.04,0 v 0"
         style="fill:#f2577a;fill-opacity:1;fill-rule:nonzero;stroke:none"
         id="path142" /><path
         d="m 1929.79,3409.24 c -0.01,0 -0.02,0 -0.02,0 0,0 0.01,0 0.02,0 v 0 m 0.07,0 c 2.86,0.02 5.7,1.17 7.8,3.41 -2.1,-2.24 -4.94,-3.39 -7.8,-3.41 m -7.07,2.58 c -0.03,0.02 -0.06,0.05 -0.09,0.07 0.03,-0.02 0.06,-0.05 0.09,-0.07 m 14.95,0.91 c 0.03,0.04 0.06,0.07 0.09,0.1 -0.03,-0.03 -0.06,-0.06 -0.09,-0.1 m -18.74,7.29 c 0,2.56 0.91,5.14 2.76,7.21 0.02,0.02 0.05,0.05 0.07,0.07 -0.02,-0.02 -0.05,-0.05 -0.07,-0.07 -1.85,-2.07 -2.76,-4.65 -2.76,-7.21 m 21.58,0.02 c -0.01,2.95 -1.22,5.89 -3.59,8.03 v 0 0 c 2.37,-2.14 3.58,-5.08 3.59,-8.03 m -18.46,7.57 c 2.09,2.12 4.86,3.2 7.64,3.21 -2.78,-0.01 -5.55,-1.09 -7.64,-3.21 m 14.56,0.72 c -0.01,0.01 -0.03,0.03 -0.05,0.05 0.02,-0.02 0.04,-0.04 0.05,-0.05 m -6.86,2.49 c -0.01,0 -0.02,0 -0.02,0 v 0 c 0,0 0.01,0 0.02,0"
         style="fill:#e54f6a;fill-opacity:1;fill-rule:nonzero;stroke:none"
         id="path144" /><path
         d="m 1950.7,3432.99 c -0.08,0 -0.17,0.01 -0.27,0.02 0.1,-0.01 0.19,-0.02 0.27,-0.02 v 0 m 0.01,0 c 0.23,0 0.41,0.06 0.53,0.17 -0.12,-0.11 -0.3,-0.17 -0.53,-0.17 m -0.29,0.02 c -0.05,0.01 -0.11,0.02 -0.17,0.03 0.06,-0.01 0.12,-0.02 0.17,-0.03 m -0.21,0.04 c -0.91,0.18 -2.32,0.79 -4.15,1.5 1.83,-0.71 3.24,-1.32 4.15,-1.5 m -35.86,0.16 c -0.13,0 -0.24,0.02 -0.33,0.05 0.09,-0.03 0.2,-0.05 0.33,-0.05 0.85,0 2.39,0.65 4.49,1.44 -2.1,-0.79 -3.64,-1.44 -4.49,-1.44 m -0.52,0.15 c -0.01,0.01 -0.02,0.02 -0.03,0.03 0.01,-0.01 0.02,-0.02 0.03,-0.03 m 37.57,0.25 c 0,0.93 -1.22,2.91 -3.89,5.01 -3.13,2.51 -8.55,4.97 -14.93,5.01 -0.05,0 -0.1,0 -0.15,0 v 0 c 0.05,0 0.1,0 0.15,0 6.38,-0.04 11.8,-2.5 14.93,-5.01 2.67,-2.1 3.89,-4.08 3.89,-5.01 m -37.75,0.22 c 0.01,0.93 1.25,2.89 3.95,4.97 0.07,0.06 0.14,0.11 0.21,0.16 -0.07,-0.05 -0.14,-0.1 -0.21,-0.16 -2.7,-2.08 -3.94,-4.04 -3.95,-4.97 m 32.4,0.72 c -0.55,0.22 -1.15,0.45 -1.78,0.67 0.63,-0.22 1.23,-0.45 1.78,-0.67 m -20.55,2.15 c 2.01,0.44 4.24,0.75 6.62,0.75 -2.38,0 -4.61,-0.31 -6.62,-0.75 m 7.2,0.75 c -0.03,0 -0.07,0 -0.11,0 v 0 c 0.04,0 0.08,0 0.11,0 m -0.15,0 c -0.07,0 -0.13,0 -0.2,0 0.07,0 0.13,0 0.2,0 m -0.38,0 v 0 0 0 m -14.27,1.58 v 0 0 m 0.18,0.13 c 3.18,2.32 8.32,4.45 14.3,4.47 -5.98,-0.02 -11.12,-2.15 -14.3,-4.47"
         style="fill:#e54f6a;fill-opacity:1;fill-rule:nonzero;stroke:none"
         id="path146" /><path
         d="m 1821.23,3403.49 c 0,0 -0.01,0 -0.02,0 0.01,0 0.02,0 0.02,0 v 0 m 0.05,0 c 3.59,0.01 7.09,1.83 9.13,5.09 -2.04,-3.26 -5.54,-5.08 -9.13,-5.09 m 10.76,10.79 c -0.01,3.64 -1.86,7.2 -5.2,9.22 v 0 0 c 3.34,-2.02 5.19,-5.58 5.2,-9.22 m -21.58,0.01 c -0.01,1.9 0.5,3.84 1.56,5.59 v 0 0 c -1.06,-1.75 -1.57,-3.69 -1.56,-5.59 m 1.85,6.04 c 2.06,3.05 5.44,4.72 8.9,4.74 -3.46,-0.02 -6.84,-1.69 -8.9,-4.74 m 14.39,3.26 c -0.01,0 -0.02,0.01 -0.03,0.02 0.01,-0.01 0.02,-0.02 0.03,-0.02 m -0.26,0.14 c 0,0.01 -0.01,0.01 -0.02,0.02 0.01,-0.01 0.02,-0.01 0.02,-0.02 m -5.16,1.34 c -0.01,0 -0.02,0 -0.03,0 v 0 c 0.01,0 0.02,0 0.03,0"
         style="fill:#e54f6a;fill-opacity:1;fill-rule:nonzero;stroke:none"
         id="path148" /><path
         d="m 1839.63,3423.3 c -0.09,0 -0.18,0.01 -0.27,0.02 0.09,-0.01 0.18,-0.02 0.27,-0.02 v 0 m 0,0 c 0.24,0 0.41,0.06 0.53,0.17 -0.12,-0.11 -0.29,-0.17 -0.53,-0.17 m -0.31,0.02 c -0.05,0.01 -0.1,0.02 -0.15,0.03 0.05,-0.01 0.1,-0.02 0.15,-0.03 m -0.18,0.04 c -1.2,0.24 -3.25,1.2 -5.95,2.17 2.7,-0.97 4.75,-1.93 5.95,-2.17 m -35.86,0.16 c -0.11,0 -0.22,0.01 -0.3,0.03 0.08,-0.02 0.19,-0.03 0.3,-0.03 1.07,0 3.29,1.06 6.35,2.12 -3.06,-1.06 -5.28,-2.12 -6.35,-2.12 m -0.53,0.16 c -0.01,0 -0.01,0 -0.01,0.01 0,-0.01 0,-0.01 0.01,-0.01 m 37.57,0.23 c 0,0.93 -1.22,2.91 -3.89,5.02 -3.13,2.51 -8.55,4.97 -14.93,5.01 -0.04,0 -0.09,0 -0.13,0 v 0 c 0.04,0 0.09,0 0.13,0 6.38,-0.04 11.8,-2.5 14.93,-5.01 2.67,-2.11 3.89,-4.09 3.89,-5.02 m -37.75,0.23 c 0.01,0.93 1.25,2.9 3.95,4.97 0.07,0.06 0.15,0.12 0.22,0.18 -0.07,-0.06 -0.15,-0.12 -0.22,-0.18 -2.7,-2.07 -3.94,-4.04 -3.95,-4.97 m 7.06,1.5 c 3.06,1.06 6.95,2.11 11.41,2.12 -4.46,-0.01 -8.35,-1.06 -11.41,-2.12 m 11.94,2.12 c -0.02,0 -0.04,0 -0.06,0 v 0 c 0.02,0 0.04,0 0.06,0 m -0.1,0 c -0.07,0 -0.13,0 -0.2,0 0.07,0 0.13,0 0.2,0 m -0.38,0 v 0 0 0 m -14.35,1.53 c 3.17,2.38 8.43,4.64 14.58,4.65 -6.15,-0.01 -11.41,-2.27 -14.58,-4.65"
         style="fill:#e54f6a;fill-opacity:1;fill-rule:nonzero;stroke:none"
         id="path150" /><path
         d="m 1888.79,3338.6 c -0.01,0 -0.01,0 -0.02,0 0.01,0 0.01,0 0.02,0 v 0 m 0.04,0 c 2.53,0 5.67,0.08 9.31,0.22 -3.64,-0.14 -6.78,-0.22 -9.31,-0.22 m -7.1,0.76 c 0.02,0.8 6.32,2.11 16.52,3.59 2.68,0.3 4.77,0.92 4.96,2.36 0.08,0.27 0.11,0.57 0.11,0.89 0,-0.32 -0.03,-0.62 -0.11,-0.89 -0.19,-1.44 -2.28,-2.06 -4.96,-2.36 -10.2,-1.48 -16.5,-2.79 -16.52,-3.59 m 26.52,7.58 c 0,3.02 -1.25,5.63 -2,7.95 -2.53,6.8 -5.1,13.69 -7.79,20.9 -0.18,0.47 -0.36,0.94 -0.54,1.41 0.18,-0.47 0.36,-0.94 0.54,-1.41 2.69,-7.21 5.26,-14.1 7.79,-20.9 0.75,-2.32 2,-4.93 2,-7.95 m -10.42,30.48 c -0.03,0.08 -0.06,0.15 -0.09,0.23 0.03,-0.08 0.06,-0.15 0.09,-0.23 m -0.1,0.25 c -10.93,28.31 -20.84,50.59 -22.5,50.59 v 0 c 1.66,0 11.57,-22.28 22.5,-50.59 m -22.73,49.97 c -0.01,0.35 0.05,0.56 0.18,0.61 0.01,0.01 0.03,0.01 0.05,0.01 -0.02,0 -0.04,0 -0.05,-0.01 -0.13,-0.05 -0.19,-0.26 -0.18,-0.61"
         style="fill:#e54f6a;fill-opacity:1;fill-rule:nonzero;stroke:none"
         id="path152" /><path
         d="m 1875.48,3193.96 c -0.01,0 -0.02,0 -0.03,0 0.01,0 0.02,0 0.03,0 v 0 m 0,0 c 4.26,0 8.71,0.21 13.36,0.66 -4.65,-0.45 -9.1,-0.66 -13.36,-0.66 m 13.08,18.86 -0.01,1.05 c 0,0 -2.05,-0.18 -5.76,-0.18 3.71,0 5.76,0.18 5.76,0.18 l 0.01,-1.05 v 0 m -5.77,0.87 c -0.14,0 -0.28,0 -0.43,0 0.15,0 0.29,0 0.43,0 v 0 m -90.33,26.54 c -0.12,0.07 -0.24,0.15 -0.36,0.22 0.12,-0.07 0.24,-0.15 0.36,-0.22 m -0.93,0.57 v 0 0 0"
         style="fill:#f36485;fill-opacity:1;fill-rule:nonzero;stroke:none"
         id="path154" /><path
         d="m 1668.93,3365.56 v 0 c -0.66,0 -1.34,0.06 -2.06,0.2 -0.09,0.02 -0.18,0.04 -0.27,0.06 -7.42,1.84 -13.03,11.22 -13.74,21.43 -0.04,0.69 -0.07,1.38 -0.06,2.06 0,4.44 0.97,8.66 2.59,12.22 1.65,4.06 5.03,7.8 8.94,8.22 v 0 c 0.36,0.05 0.73,0.08 1.09,0.08 h 0.01 c 0.03,0 0.05,0 0.07,0 1.35,-0.01 2.61,-0.39 3.58,-1.05 0,0 0,-0.01 0.01,-0.01 0.06,-0.04 0.12,-0.08 0.18,-0.13 1.23,-0.93 1.87,-2.1 2.12,-3.1 0.02,-0.09 0.04,-0.18 0.06,-0.27 0,-0.03 0.01,-0.06 0.01,-0.08 0,-0.01 0,-0.01 0,-0.01 0.01,-0.04 0.02,-0.08 0.02,-0.12 0,-0.01 0,-0.01 0,-0.01 0.13,-0.85 0,-1.5 -0.17,-1.91 -0.16,-0.39 -0.37,-0.59 -0.46,-0.59 0,0 -0.01,0 -0.01,0 -0.01,0 -0.01,0.01 -0.02,0.01 v 0 c -0.27,0.08 0.01,1.1 -0.72,2.5 v 0 c -0.55,1.14 -1.97,2.38 -3.91,2.41 -0.03,0 -0.05,0 -0.07,0 v 0 0 c -0.01,0 -0.01,0 -0.02,0 -0.34,0 -0.7,-0.04 -1.08,-0.12 -0.04,-0.01 -0.08,-0.02 -0.12,-0.03 -0.04,-0.01 -0.08,-0.02 -0.11,-0.03 -2.68,-0.59 -4.99,-3.27 -6.4,-7.05 -1.29,-3.18 -2.06,-6.91 -2.06,-10.83 0,-0.64 0.02,-1.28 0.07,-1.93 0.59,-9.14 5.43,-17.49 10.87,-19.25 0.99,-0.33 1.95,-0.46 2.84,-0.46 v 0 0 0 c 0.02,0 0.03,0 0.04,0 1.49,0 2.79,0.38 3.68,0.82 0.02,0.01 0.03,0.02 0.05,0.03 0.06,0.02 0.11,0.06 0.17,0.09 0.03,0.01 0.06,0.03 0.09,0.04 0.03,0.02 0.05,0.03 0.08,0.05 0.02,0.01 0.04,0.02 0.06,0.04 1.07,0.61 1.61,1.19 1.86,1.19 h 0.01 c 0.01,0 0.02,0 0.03,0 0,0 0,-0.01 0.01,-0.01 0,0 0,0 0.01,0 0,0 0,0 0.01,-0.01 v 0 c 0.03,-0.01 0.05,-0.06 0.05,-0.15 0,-0.37 -0.38,-1.32 -1.62,-2.39 v 0 c -0.04,-0.04 -0.08,-0.07 -0.12,-0.1 -0.03,-0.02 -0.05,-0.04 -0.07,-0.06 -0.04,-0.02 -0.07,-0.04 -0.1,-0.07 -1.18,-0.88 -3.08,-1.67 -5.39,-1.68 -0.01,0 -0.02,0 -0.03,0"
         style="fill:#f1496c;fill-opacity:1;fill-rule:nonzero;stroke:none"
         id="path156" /><path
         d="m 1668.93,3365.56 v 0 0 0 m 0.03,0 c 2.31,0.01 4.21,0.8 5.39,1.68 -1.18,-0.88 -3.08,-1.67 -5.39,-1.68 m -2.09,0.2 c -0.09,0.02 -0.18,0.04 -0.27,0.06 -7.42,1.84 -13.03,11.22 -13.74,21.43 -0.04,0.69 -0.07,1.38 -0.06,2.06 -0.01,-0.68 0.02,-1.37 0.06,-2.06 0.71,-10.21 6.32,-19.59 13.74,-21.43 0.09,-0.02 0.18,-0.04 0.27,-0.06 m 7.58,1.55 c 0.02,0.02 0.04,0.04 0.07,0.06 -0.03,-0.02 -0.05,-0.04 -0.07,-0.06 m 0.19,0.16 v 0 c 1.24,1.07 1.62,2.02 1.62,2.39 0,-0.37 -0.38,-1.32 -1.62,-2.39 v 0 m -4.53,0.3 v 0 0 0 m 0.04,0 c 1.49,0 2.79,0.38 3.68,0.82 -0.89,-0.44 -2.19,-0.82 -3.68,-0.82 m 3.9,0.94 c 0.03,0.01 0.06,0.03 0.09,0.04 -0.03,-0.01 -0.06,-0.03 -0.09,-0.04 m 0.17,0.09 c 0.02,0.01 0.04,0.02 0.06,0.04 -0.02,-0.02 -0.04,-0.03 -0.06,-0.04 m 1.99,1.21 c -0.01,0.01 -0.01,0.01 -0.01,0.01 0,0 0,0 0.01,-0.01 m -0.02,0.01 c -0.01,0 -0.01,0.01 -0.01,0.01 0,0 0,-0.01 0.01,-0.01 m -0.04,0.01 h -0.01 v 0 h 0.01 m -19.82,19.38 c 0,3.92 0.77,7.65 2.06,10.83 1.41,3.78 3.72,6.46 6.4,7.05 0.03,0.01 0.07,0.02 0.11,0.03 -0.04,-0.01 -0.08,-0.02 -0.11,-0.03 -2.68,-0.59 -4.99,-3.27 -6.4,-7.05 -1.29,-3.18 -2.06,-6.91 -2.06,-10.83 m 14.52,13.14 c 0,0 -0.01,0 -0.01,0 0,0 0.01,0 0.01,0 v 0 m -0.03,0.01 v 0 c -0.27,0.08 0.01,1.1 -0.72,2.5 v 0 0 c 0.73,-1.4 0.45,-2.42 0.72,-2.5 v 0 m 0.49,0.58 c 0.17,0.41 0.3,1.06 0.17,1.91 0.13,-0.85 0,-1.5 -0.17,-1.91 m 0.17,1.92 c 0,0.04 -0.01,0.08 -0.02,0.12 0.01,-0.04 0.02,-0.08 0.02,-0.12 m -0.02,0.13 c 0,0.02 -0.01,0.05 -0.01,0.08 0,-0.03 0.01,-0.06 0.01,-0.08 m -6.44,2.16 c 0.38,0.08 0.74,0.12 1.08,0.12 -0.34,0 -0.7,-0.04 -1.08,-0.12 m 1.17,0.12 c -0.03,0 -0.05,0 -0.07,0 v 0 c 0.02,0 0.04,0 0.07,0 m 2.9,1.3 c -0.01,0 -0.01,0.01 -0.01,0.01 0,0 0,-0.01 0.01,-0.01 m -4.76,0.98 c 0.36,0.05 0.73,0.08 1.09,0.08 -0.36,0 -0.73,-0.03 -1.09,-0.08 m 1.17,0.08 c -0.02,0 -0.04,0 -0.07,0 v 0 c 0.03,0 0.05,0 0.07,0"
         style="fill:#f36386;fill-opacity:1;fill-rule:nonzero;stroke:none"
         id="path158" /><path
         d="m 1685.28,3571.54 c -1.77,0 -7.26,4.33 -15.11,6.63 -8.57,2.72 -16.15,1.82 -16.5,3.28 -0.39,0.91 3.71,2.97 9.76,2.97 2.48,0 5.3,-0.35 8.26,-1.27 10.21,-3.07 15.17,-10.72 14,-11.48 -0.1,-0.09 -0.24,-0.13 -0.41,-0.13"
         style="fill:#da314b;fill-opacity:1;fill-rule:nonzero;stroke:none"
         id="path160" /><path
         d="m 1693.44,3568.7 -0.83,0.15 c -2.39,1.27 -9.02,8.94 -11.37,20.72 -2.67,13.4 -0.16,24.1 1.07,24.1 0,0 0.01,0 0.02,0 1.63,-0.04 1.51,-10.75 4,-23.02 2.14,-10.97 7.02,-19 7.23,-21.31 l -0.12,-0.64"
         style="fill:#da314b;fill-opacity:1;fill-rule:nonzero;stroke:none"
         id="path162" /><path
         d="m 1904.84,3448.51 h -0.01 c -1.75,0 -2.93,0.27 -3.4,1.02 -0.01,0.01 -0.01,0.03 -0.02,0.04 -0.11,0.17 -0.17,0.36 -0.17,0.57 -0.04,2.86 9.06,9.93 22.62,10.59 v 0 c 0.74,0.04 1.48,0.06 2.2,0.06 v 0 c 0.01,0 0.03,0 0.04,0 13.37,-0.02 22.47,-6.55 21.22,-8.89 v 0 0 c -0.01,-0.04 -0.03,-0.08 -0.05,-0.11 -0.65,-1.18 -3.06,-1.43 -6.62,-1.43 -0.01,0 -0.02,0 -0.03,0 -0.01,0 -0.02,0 -0.02,0 -0.94,0 -1.96,0.02 -3.05,0.04 -0.47,0.01 -0.95,0.02 -1.44,0.03 -0.75,0.02 -1.53,0.03 -2.34,0.05 -0.94,0.01 -1.91,0.02 -2.92,0.02 -0.01,0 -0.02,0 -0.03,0 v 0 0 c -0.01,0 -0.02,0 -0.03,0 -1.87,0 -3.84,-0.03 -5.86,-0.14 -0.18,-0.01 -0.36,-0.02 -0.55,-0.04 v 0 0 c -8.23,-0.33 -15.43,-1.81 -19.54,-1.81"
         style="fill:#da314b;fill-opacity:1;fill-rule:nonzero;stroke:none"
         id="path164" /><path
         d="m 1904.84,3448.51 h -0.01 0.01 v 0 m -3.41,1.02 c -0.01,0.01 -0.01,0.03 -0.02,0.04 -0.11,0.17 -0.17,0.36 -0.17,0.57 0,-0.21 0.06,-0.4 0.17,-0.57 0.01,-0.01 0.01,-0.03 0.02,-0.04 m 23.5,0.83 c 2.02,0.11 3.99,0.14 5.86,0.14 -1.87,0 -3.84,-0.03 -5.86,-0.14 m 15.69,0 c -0.01,0 -0.02,0 -0.02,0 0,0 0.01,0 0.02,0 v 0 m 0.03,0 c 3.56,0 5.97,0.25 6.62,1.43 -0.65,-1.18 -3.06,-1.43 -6.62,-1.43 m -3.1,0.04 c -0.47,0.01 -0.95,0.02 -1.44,0.03 -0.75,0.02 -1.53,0.03 -2.34,0.05 0.81,-0.02 1.59,-0.03 2.34,-0.05 0.49,-0.01 0.97,-0.02 1.44,-0.03 m -6.7,0.1 c -0.01,0 -0.02,0 -0.03,0 v 0 c 0.01,0 0.02,0 0.03,0 m 16.47,1.4 v 0 0 0 0 m -23.46,8.83 c 0.74,0.04 1.48,0.06 2.2,0.06 -0.72,0 -1.46,-0.02 -2.2,-0.06 m 2.24,0.06 c -0.01,0 -0.03,0 -0.04,0 v 0 c 0.01,0 0.03,0 0.04,0"
         style="fill:#d94861;fill-opacity:1;fill-rule:nonzero;stroke:none"
         id="path166" /><path
         d="m 1807.73,3452.92 c -0.01,0 -0.03,0 -0.04,0 -11.7,0.01 -20.34,2.94 -20.32,5.49 0,0.02 0,0.04 0,0.06 v 0 c 0.16,2.96 10.62,4.37 22.85,4.91 4.17,0.2 8.63,0.42 15.35,0.74 v 0 c 0.95,0.04 1.81,0.08 2.6,0.1 v 0 c 0.34,0.01 0.66,0.01 0.97,0.01 0.02,0 0.03,0 0.05,0 h 0.01 c 1.77,0 3,-0.18 3.57,-0.88 0.02,-0.03 0.04,-0.05 0.06,-0.08 0.01,-0.01 0.01,-0.02 0.02,-0.04 0.12,-0.17 0.19,-0.39 0.18,-0.64 0,-1.36 -1.8,-3.64 -5.34,-5.53 -4.14,-2.23 -10.29,-3.76 -16.93,-4.08 -1.03,-0.04 -2.04,-0.06 -3.02,-0.06 0,0 0,0 -0.01,0"
         style="fill:#da314b;fill-opacity:1;fill-rule:nonzero;stroke:none"
         id="path168" /><path
         d="m 1807.73,3452.92 c -0.01,0 -0.03,0 -0.04,0 0.01,0 0.03,0 0.04,0 v 0 m 0.01,0 c 0.98,0 1.99,0.02 3.02,0.06 6.64,0.32 12.79,1.85 16.93,4.08 3.54,1.89 5.34,4.17 5.34,5.53 0,-1.36 -1.8,-3.64 -5.34,-5.53 -4.14,-2.23 -10.29,-3.76 -16.93,-4.08 -1.03,-0.04 -2.04,-0.06 -3.02,-0.06 m -20.37,5.49 c 0,0.02 0,0.04 0,0.06 0,-0.02 0,-0.04 0,-0.06 m 45.46,4.86 c -0.02,0.03 -0.04,0.05 -0.06,0.08 0.02,-0.03 0.04,-0.05 0.06,-0.08 m -7.26,0.85 c 0.95,0.04 1.81,0.08 2.6,0.1 -0.79,-0.02 -1.65,-0.06 -2.6,-0.1 m 2.6,0.1 c 0.34,0.01 0.66,0.01 0.97,0.01 -0.31,0 -0.63,0 -0.97,-0.01 m 1.03,0.01 h -0.01 v 0 h 0.01"
         style="fill:#d94861;fill-opacity:1;fill-rule:nonzero;stroke:none"
         id="path170" /><path
         d="m 1879.95,3310.91 c -0.01,0 -0.02,0 -0.04,0 -3.37,0.01 -7.22,0.5 -11.28,1.85 v 0 c -0.06,0.02 -0.11,0.04 -0.17,0.05 -0.11,0.04 -0.22,0.08 -0.33,0.12 -12.44,4.17 -18.54,13.55 -18.55,15.61 0,0.2 0.06,0.33 0.17,0.38 v 0 c 0.07,0.05 0.15,0.08 0.25,0.08 v 0 c 1.67,0 8.18,-7.04 18.89,-10.82 0.17,-0.07 0.34,-0.13 0.51,-0.18 0.14,-0.05 0.28,-0.09 0.42,-0.14 v 0 c 11.8,-4.2 22.26,-2.05 22.63,-3.52 0,-0.01 0,-0.01 0,-0.02 0.44,-0.84 -4.78,-3.4 -12.47,-3.41 -0.01,0 -0.02,0 -0.03,0"
         style="fill:#da314b;fill-opacity:1;fill-rule:nonzero;stroke:none"
         id="path172" /><path
         d="m 1879.95,3310.91 c -0.01,0 -0.02,0 -0.04,0 0.02,0 0.03,0 0.04,0 v 0 m 0.03,0 c 7.69,0.01 12.91,2.57 12.47,3.41 0.44,-0.84 -4.78,-3.4 -12.47,-3.41 m -11.35,1.85 v 0 0 m -0.17,0.05 c -0.11,0.04 -0.22,0.08 -0.33,0.12 -12.44,4.17 -18.54,13.55 -18.55,15.61 0.01,-2.06 6.11,-11.44 18.55,-15.61 0.11,-0.04 0.22,-0.08 0.33,-0.12 m 1.36,5.05 c -0.14,0.05 -0.28,0.09 -0.42,0.14 0.14,-0.05 0.28,-0.09 0.42,-0.14 m -0.93,0.32 c -10.71,3.78 -17.22,10.82 -18.89,10.82 v 0 c 1.67,0 8.18,-7.04 18.89,-10.82 m -19.14,10.74 c 0.07,0.05 0.15,0.08 0.25,0.08 -0.1,0 -0.18,-0.03 -0.25,-0.08"
         style="fill:#d94861;fill-opacity:1;fill-rule:nonzero;stroke:none"
         id="path174" /><path
         d="m 1690.63,3391.88 c -0.78,16.77 -1.52,32.38 -1.52,32.38 -0.26,0.12 -2.62,0.79 -6.08,1.37 -0.16,0.03 -0.33,0.06 -0.49,0.08 -2.6,0.42 -5.78,0.75 -9.23,0.75 0,0 -0.01,0 -0.02,0 v 0 0 c -0.03,0 -0.06,0 -0.09,0 -3.61,0 -7.5,-0.37 -11.33,-1.38 -0.07,-0.02 -0.15,-0.04 -0.22,-0.06 -0.06,-0.01 -0.12,-0.03 -0.17,-0.04 -0.03,-0.01 -0.06,-0.02 -0.1,-0.03 -0.04,-0.01 -0.08,-0.02 -0.12,-0.04 1.53,11.29 3.79,23.09 -1.46,33.01 -4.42,8.38 -13.21,13.32 -20.22,19.7 -12.21,11.11 -19.37,27.95 -17.56,44.36 1.81,16.41 13.1,31.74 28.7,37.14 13.56,4.69 30.23,2.74 41.89,9.73 l 0.83,-0.15 0.12,0.64 c 1.69,1.1 3.26,2.41 4.7,3.98 8.22,9.03 7.91,22.98 14.06,33.54 8.35,14.34 26.29,19.07 43.31,19.07 2.42,0 4.83,-0.09 7.18,-0.27 12.27,-0.93 24.76,-3.3 36.96,-3.3 6.61,0 13.14,0.7 19.49,2.7 15.11,4.74 27.05,16.22 41.02,23.66 11.76,6.27 25.01,9.3 38.31,9.3 20.96,0 42.01,-7.55 57.37,-21.89 25.08,-23.43 33.12,-63.27 19.08,-94.59 -4.12,-9.18 -10.3,-17.65 -18.44,-23.4 v -0.23 c 0,0 -0.77,-0.44 -2.19,-1.14 l -2.51,-1.57 v 0 l -1.02,-0.65 -0.53,0.4 c -0.04,-0.02 -0.07,-0.04 -0.11,-0.05 -0.05,-0.02 -0.09,-0.04 -0.14,-0.06 -0.1,-0.04 -0.2,-0.08 -0.3,-0.13 -0.03,-0.01 -0.06,-0.02 -0.09,-0.03 -8.29,-3.42 -23.77,-8.33 -44.29,-8.34 0,0 -0.01,0 -0.02,0 -0.02,0 -0.04,0 -0.06,0 -14.9,0.01 -32.45,2.61 -51.84,10.23 -0.13,0.06 -0.25,0.11 -0.38,0.16 -0.18,0.07 -0.35,0.14 -0.53,0.21 -0.1,0.04 -0.19,0.08 -0.29,0.11 v 0 c -0.12,0.06 -0.25,0.11 -0.38,0.15 -0.34,0.14 -0.67,0.28 -1.01,0.41 -0.39,0.15 -0.78,0.3 -1.17,0.46 -0.01,0 -0.02,0 -0.03,0.01 -0.28,0.11 -0.55,0.22 -0.83,0.32 -0.05,0.02 -0.1,0.04 -0.15,0.06 -25.79,9.92 -53.36,15.56 -71.73,15.88 -0.55,0.01 -1.09,0.02 -1.63,0.02 v 0 0 h -0.01 c -8.44,0 -14.74,-1.21 -17.72,-3.73 -0.06,-0.04 -0.11,-0.08 -0.16,-0.13 -0.02,-0.02 -0.05,-0.04 -0.07,-0.07 -9.27,-8.52 -8.18,-48.34 -45.37,-62.97 v 0 0 c 0,0 1.12,-9.86 1.12,-22.43 0,-21.75 -3.37,-51.62 -21.81,-52.58 l -0.11,-0.15 -0.61,-0.42"
         style="fill:#da314b;fill-opacity:1;fill-rule:nonzero;stroke:none"
         id="path176" /><path
         d="m 1690.63,3391.88 c -0.78,16.77 -1.52,32.38 -1.52,32.38 -0.26,0.12 -2.62,0.79 -6.08,1.37 -0.16,0.03 -0.33,0.06 -0.49,0.08 0.16,-0.02 0.33,-0.05 0.49,-0.08 3.46,-0.58 5.82,-1.25 6.08,-1.37 0,0 0.74,-15.61 1.52,-32.38 l 0.61,0.42 0.11,0.15 c 18.44,0.96 21.81,30.83 21.81,52.58 0,-21.75 -3.37,-51.62 -21.81,-52.58 l -0.11,-0.15 -0.61,-0.42 m -29.37,33.03 v 0 c 0.04,0.02 0.08,0.03 0.12,0.04 -0.04,-0.01 -0.08,-0.02 -0.12,-0.04 m 0.22,0.07 c 0.05,0.01 0.11,0.03 0.17,0.04 -0.06,-0.01 -0.12,-0.03 -0.17,-0.04 m 0.39,0.1 c 3.83,1.01 7.72,1.38 11.33,1.38 -3.61,0 -7.5,-0.37 -11.33,-1.38 m 11.44,1.38 c 0,0 -0.01,0 -0.02,0 v 0 c 0.01,0 0.02,0 0.02,0 m 38.73,41 v 0 c 37.19,14.63 36.1,54.45 45.37,62.97 0.02,0.03 0.05,0.05 0.07,0.07 -0.02,-0.02 -0.05,-0.04 -0.07,-0.07 -9.27,-8.52 -8.18,-48.34 -45.37,-62.97 m 193.36,38.88 c -0.02,0 -0.04,0 -0.06,0 0.02,0 0.04,0 0.06,0 v 0 m 0.02,0 c 20.52,0.01 36,4.92 44.29,8.34 -8.29,-3.42 -23.77,-8.33 -44.29,-8.34 m 45.46,8.21 -0.53,0.4 c -0.04,-0.02 -0.07,-0.04 -0.11,-0.05 0.04,0.01 0.07,0.03 0.11,0.05 l 0.53,-0.4 1.02,0.65 v 0 l -1.02,-0.65 m -1.08,0.16 c 0.1,0.05 0.2,0.09 0.3,0.13 -0.1,-0.04 -0.2,-0.08 -0.3,-0.13 m -96.3,1.86 c -0.13,0.06 -0.25,0.11 -0.38,0.16 0.13,-0.05 0.25,-0.1 0.38,-0.16 m -0.91,0.37 c -0.1,0.04 -0.19,0.08 -0.29,0.11 v 0 0 c 0.1,-0.03 0.19,-0.07 0.29,-0.11 m -0.67,0.26 c -0.34,0.14 -0.67,0.28 -1.01,0.41 0.34,-0.13 0.67,-0.27 1.01,-0.41 m -2.18,0.87 c -0.01,0 -0.02,0 -0.03,0.01 0.01,-0.01 0.02,-0.01 0.03,-0.01 m -0.86,0.33 c -0.05,0.02 -0.1,0.04 -0.15,0.06 0.05,-0.02 0.1,-0.04 0.15,-0.06 m -91.24,12.23 c 2.98,2.52 9.28,3.73 17.72,3.73 -8.44,0 -14.74,-1.21 -17.72,-3.73 m 19.36,3.71 c -0.55,0.01 -1.09,0.02 -1.63,0.02 v 0 c 0.54,0 1.08,-0.01 1.63,-0.02"
         style="fill:#d94861;fill-opacity:1;fill-rule:nonzero;stroke:none"
         id="path178" /><path
         d="m 3527.6,4155.32 2.35,-2.36 c -713.75,-0.08 -1519.27,-0.16 -2368.72,-0.25 h -0.27 l 2.6,2.61 c -0.18,-1216.9 -0.34,-2343.41 -0.48,-3256.109 l -2.12,2.121 c 1436.61,-1.293 2351.5,-2.113 2369,-2.121 -17.49,-0.02 -932.39,-0.84 -2369,-2.121 l -2.12,-0.012 v 2.133 c -0.13,912.699 -0.3,2039.209 -0.48,3256.109 v 2.6 h 2.6 0.27 c 849.45,-0.09 1654.97,-0.17 2368.72,-0.24 h 2.36 v -2.36 c -1.39,-1926.18 -2.34,-3235.23 -2.35,-3256.109 l -2.36,3256.109"
         style="fill:#17282f;fill-opacity:1;fill-rule:nonzero;stroke:none"
         id="path180" /><path
         d="m 322.824,1875.24 12.914,-27.47 c 0,0 5.125,-17.86 20.766,-46.61 4.059,-7.47 9.426,-14.13 15.746,-19.8 7.668,-6.87 18.223,-15.6 25.484,-18.57 8.985,-3.69 8.821,-16.38 0.254,-18.5 -8.558,-2.12 -33.574,7.43 -54.89,30.31 -21.321,22.89 -18.02,-26.22 -17.137,-44.13 0.887,-17.92 1.012,-73.47 -4.281,-78.11 -7.758,-6.79 -16.473,0.27 -16.938,18.18 -0.469,18.14 -5.64,71.53 -15.078,70.62 -9.301,-0.91 -3.566,-92.06 -3.566,-92.06 0,0 4.382,-19.28 -6.493,-20.72 -19.609,-2.58 -18.57,94.77 -18.242,104.03 0.223,6.44 -10.062,5.8 -9.941,-1.12 0.125,-7.13 7.836,-90.78 -12.106,-93.6 -15.296,-2.16 0.11,80.08 -11.132,96.54 -11.239,16.47 -5.34,-63.54 -20.043,-65.01 -5.473,-0.54 -9.633,-0.19 -6.383,46.24 3.32,47.57 33.312,174.95 33.312,174.95 l 88.989,-16.5"
         style="fill:#f8a58d;fill-opacity:1;fill-rule:nonzero;stroke:none"
         id="path182" /><path
         d="m 677.742,2557.18 c 0,0 -280.355,-273.36 -286.633,-308.77 -6.281,-35.41 -46.777,-427.66 -46.777,-427.66 l -128,12.73 c 0,0 -12.086,483.59 28.106,532.69 40.191,49.1 199.699,234.07 199.699,234.07 l 233.605,-43.06"
         style="fill:#f8a58d;fill-opacity:1;fill-rule:nonzero;stroke:none"
         id="path184" /><path
         d="m 256.172,2315.09 c -0.172,-0.18 -1.766,0.93 -3.699,3.82 -1.856,2.88 -3.961,7.74 -3.789,14.12 0.05,6.26 3.226,14.17 10.207,19.19 6.636,5.12 17.324,7.35 26.402,2.68 4.465,-2.24 8.187,-6.03 9.887,-10.63 1.668,-4.54 1.578,-9.51 -0.325,-13.62 -3.992,-8.66 -14.46,-10.47 -20.183,-6.77 -6.059,3.98 -6.055,10.61 -4.926,13.77 1.25,3.49 3.32,4.38 3.391,4.2 0.281,-0.26 -1.211,-1.56 -1.774,-4.62 -0.582,-2.81 0.219,-8.25 4.813,-10.72 4.363,-2.51 12.492,-0.65 15.07,5.74 1.348,3.1 1.356,7.02 0.008,10.52 -1.328,3.47 -4.242,6.47 -7.895,8.3 -7.425,3.84 -16.293,2.18 -22.156,-2.05 -6.094,-4.16 -9.051,-10.61 -9.5,-16.18 -0.848,-11.55 5.235,-17.45 4.469,-17.75"
         style="fill:#f68260;fill-opacity:1;fill-rule:nonzero;stroke:none"
         id="path186" /><path
         d="m 1266.44,3254.89 c -1.93,-5.36 -26.57,-358.73 -26.57,-358.73 l 141.88,10.78 35.02,307.52 -150.33,40.43"
         style="fill:#33535f;fill-opacity:1;fill-rule:nonzero;stroke:none"
         id="path188" /><path
         d="m 1239.87,2896.16 -19.07,5.43 27.36,358.52 20.56,-5.83 -28.85,-358.12"
         style="fill:#17282f;fill-opacity:1;fill-rule:nonzero;stroke:none"
         id="path190" /><path
         d="m 1339.39,3170.51 c 0,-4.57 3.69,-8.27 8.26,-8.27 4.56,0 8.26,3.7 8.26,8.27 0,4.56 -3.7,8.26 -8.26,8.26 -4.57,0 -8.26,-3.7 -8.26,-8.26"
         style="fill:#17282f;fill-opacity:1;fill-rule:nonzero;stroke:none"
         id="path192" /><path
         d="M 1192.09,2720.91 1442,2656 l -39.51,296.27 -5.08,14.14 -91.61,14.14 10.96,67.58 c 5.65,31.65 37.14,51.71 68.21,43.46 10.01,-2.65 20.54,-5.45 30.06,-7.98 21.41,-5.7 39.48,-20.13 49.55,-39.87 17.38,-34.04 34.33,-71.24 32.71,-68.04 h -0.01 0.01 l 134.02,-363.51 c 0,0 41.41,-73.55 -14.83,-146.55 -43.2,-56.1 -147.51,-17.06 -196.6,-7.58 l -320.13,70.5 92.34,192.35"
         style="fill:#f8a58d;fill-opacity:1;fill-rule:nonzero;stroke:none"
         id="path194" /><path
         d="m 693.316,3081.94 c 2.067,-5.68 0.434,-12.52 -3.976,-16.65 -4.414,-4.13 -11.348,-5.32 -16.875,-2.88 -10.508,4.63 -12.57,18.67 -11.176,30.06 1.399,11.4 4.574,23.66 -0.726,33.84 -4.059,7.79 -12.18,12.43 -18.637,18.38 -11.258,10.37 -17.805,26.02 -16.031,41.23 1.765,15.2 12.328,29.36 26.82,34.27 14.797,5.02 33.558,1.42 44.156,12.9 7.676,8.32 7.469,21.27 13.231,31.02 8.941,15.14 29.402,18.58 46.925,17.15 17.524,-1.43 35.532,-6.05 52.34,-0.88 14.031,4.32 25.164,14.89 38.168,21.71 28.18,14.79 65.512,9.64 88.637,-12.22 23.125,-21.87 30.351,-58.85 17.152,-87.82 -4.734,-10.4 -12.199,-20.03 -22.551,-24.88"
         style="fill:#17282f;fill-opacity:1;fill-rule:nonzero;stroke:none"
         id="path196" /><path
         d="m 710.785,2783.58 165.586,13.22 c 1.031,19.34 -0.351,94.13 -0.351,94.13 0,0 68.898,10.71 69.746,79.6 0.851,68.88 -11.086,227.05 -11.086,227.05 -79.742,34.28 -171.785,22.7 -240.559,-30.24 l -10.211,-7.86 26.875,-375.9"
         style="fill:#f8a58d;fill-opacity:1;fill-rule:nonzero;stroke:none"
         id="path198" /><path
         d="m 918.824,3079.2 c -4.094,3.71 -4.398,10.04 -0.687,14.13 3.711,4.09 10.039,4.4 14.129,0.69 4.093,-3.71 4.402,-10.04 0.687,-14.13 -3.711,-4.09 -10.035,-4.4 -14.129,-0.69"
         style="fill:#17282f;fill-opacity:1;fill-rule:nonzero;stroke:none"
         id="path200" /><path
         d="m 935.523,3094.92 c -1.078,-1.19 -7.843,4.01 -17.328,4.06 -9.488,0.18 -16.375,-4.86 -17.422,-3.64 -0.515,0.55 0.563,2.7 3.567,4.98 2.953,2.27 8.008,4.46 13.922,4.39 5.914,-0.07 10.922,-2.38 13.812,-4.72 2.949,-2.36 3.973,-4.54 3.449,-5.07"
         style="fill:#17282f;fill-opacity:1;fill-rule:nonzero;stroke:none"
         id="path202" /><path
         d="m 826.223,3086.65 c 4.699,-2.89 6.172,-9.05 3.273,-13.76 -2.891,-4.7 -9.051,-6.17 -13.758,-3.28 -4.703,2.89 -6.172,9.06 -3.281,13.76 2.895,4.71 9.059,6.17 13.766,3.28"
         style="fill:#17282f;fill-opacity:1;fill-rule:nonzero;stroke:none"
         id="path204" /><path
         d="m 832.477,3086.57 c -1.079,-1.2 -7.848,4.01 -17.329,4.05 -9.488,0.19 -16.375,-4.85 -17.421,-3.63 -0.52,0.54 0.558,2.69 3.562,4.98 2.949,2.27 8.012,4.45 13.926,4.39 5.914,-0.08 10.918,-2.39 13.812,-4.73 2.95,-2.35 3.973,-4.53 3.45,-5.06"
         style="fill:#17282f;fill-opacity:1;fill-rule:nonzero;stroke:none"
         id="path206" /><path
         d="m 870.52,3008.3 c -0.067,0.74 5.8,1.93 15.339,3.25 2.485,0.27 4.43,0.83 4.61,2.17 0.445,1.5 -0.516,4.15 -1.778,7.1 -2.441,6.28 -4.91,12.63 -7.5,19.28 -10.367,27.47 -17.636,50.15 -16.246,50.67 1.399,0.53 10.93,-21.3 21.297,-48.77 2.449,-6.7 4.789,-13.1 7.102,-19.42 0.914,-2.87 2.636,-6.22 1.359,-10.32 -0.687,-2.05 -2.64,-3.53 -4.277,-3.96 -1.645,-0.49 -3.043,-0.5 -4.235,-0.55 -9.625,-0.35 -15.609,-0.19 -15.671,0.55"
         style="fill:#17282f;fill-opacity:1;fill-rule:nonzero;stroke:none"
         id="path208" /><path
         d="m 839.691,2997.82 c 12.43,-4.95 27.27,-11.15 46.532,-13.52 0,0 -11.082,-17.71 -30.938,-10.43 -20.621,7.54 -15.594,23.95 -15.594,23.95"
         style="fill:#ffffff;fill-opacity:1;fill-rule:nonzero;stroke:none"
         id="path210" /><path
         d="m 876.133,2891.92 c 0,0 -43.531,-3.54 -89.801,25.52 0,0 21.227,-49.57 89.961,-43.36 l -0.16,17.84"
         style="fill:#f68260;fill-opacity:1;fill-rule:nonzero;stroke:none"
         id="path212" /><path
         d="m 936.094,3180.25 c 0,0 -40.301,-23.33 -96.707,-0.2 -37.02,15.18 -79.274,20.8 -87.91,12.95 -8.645,-7.86 -7.86,-44.79 -42.43,-58.14 0,0 7.629,-70 -20.539,-69.57 -28.164,0.43 -18.723,110.42 -18.723,110.42 l 65.977,38.5 73.652,19.64 71.117,-4.72 55.563,-10.88 v -38"
         style="fill:#17282f;fill-opacity:1;fill-rule:nonzero;stroke:none"
         id="path214" /><path
         d="m 692.402,3088.13 c -1.175,0.52 -47.332,14.01 -45.828,-33.09 1.508,-47.09 48.477,-35.87 48.516,-34.51 0.039,1.35 -2.688,67.6 -2.688,67.6"
         style="fill:#f8a58d;fill-opacity:1;fill-rule:nonzero;stroke:none"
         id="path216" /><path
         d="m 680.133,3037.91 c -0.211,0.14 -0.801,-0.6 -2.168,-1.28 -1.332,-0.67 -3.645,-1.17 -6.129,-0.33 -5.035,1.67 -9.477,9.44 -9.977,17.92 -0.257,4.28 0.516,8.39 1.922,11.82 1.328,3.49 3.481,5.96 5.969,6.49 2.477,0.66 4.297,-0.78 4.914,-2.09 0.672,-1.3 0.406,-2.25 0.66,-2.32 0.137,-0.11 0.985,0.82 0.539,2.75 -0.222,0.93 -0.808,2.02 -1.941,2.89 -1.164,0.89 -2.844,1.3 -4.582,1.06 -3.621,-0.37 -6.781,-3.82 -8.332,-7.58 -1.75,-3.78 -2.711,-8.4 -2.422,-13.21 0.598,-9.48 5.742,-18.21 12.609,-19.96 3.348,-0.76 6.075,0.33 7.469,1.48 1.418,1.22 1.633,2.28 1.469,2.36"
         style="fill:#f68260;fill-opacity:1;fill-rule:nonzero;stroke:none"
         id="path218" /><path
         d="m 660.43,3234.09 c -0.535,1.29 7.3,4.65 16.777,1.65 9.504,-2.93 14.027,-10.15 12.856,-10.91 -1.118,-0.99 -6.477,3.56 -14.407,5.94 -7.871,2.55 -14.871,1.86 -15.226,3.32"
         style="fill:#17282f;fill-opacity:1;fill-rule:nonzero;stroke:none"
         id="path220" /><path
         d="m 687.188,3263.8 c 1.613,-0.06 1.535,-9.99 3.765,-21.34 2.152,-11.4 7.469,-19.48 6.277,-20.42 -0.929,-1.02 -8.91,6.61 -11.378,19.37 -2.418,12.56 0.105,22.52 1.336,22.39"
         style="fill:#17282f;fill-opacity:1;fill-rule:nonzero;stroke:none"
         id="path222" /><path
         d="m 889.391,3110.4 c -1.539,2.34 7.242,10.02 20.863,10.59 13.625,0.64 23.047,-6.22 21.723,-8.69 -1.204,-2.7 -10.391,-1.11 -21.258,-1.71 -10.875,-0.37 -19.887,-2.77 -21.328,-0.19"
         style="fill:#17282f;fill-opacity:1;fill-rule:nonzero;stroke:none"
         id="path224" /><path
         d="m 783.715,3119.23 c -1.535,2.35 7.238,10.02 20.859,10.59 13.629,0.65 23.055,-6.22 21.731,-8.69 -1.207,-2.7 -10.395,-1.11 -21.266,-1.71 -10.875,-0.37 -19.883,-2.77 -21.324,-0.19"
         style="fill:#17282f;fill-opacity:1;fill-rule:nonzero;stroke:none"
         id="path226" /><path
         d="m 393.871,208.5 -16.414,-68.949 c 0,0 -112.754,-146.44944 -147.535,-139.289281 C 207.129,4.94922 235.137,43.1602 278.027,154.398 l 9,45.942 106.844,8.16"
         style="fill:#33535f;fill-opacity:1;fill-rule:nonzero;stroke:none"
         id="path228" /><path
         d="m 225.332,21.8906 c 0.227,0.2188 1.109,-3.2304 6.02,-5.7617 4.746,-2.668 13.554,-2.8594 21.574,3 15.375,12.1914 35.179,31.4414 56.101,53.1914 20.879,21.8985 38.426,42.9807 50.758,58.4997 5.473,7.039 10.254,13.211 14.41,18.559 1.387,1.793 2.676,3.461 3.907,5.062 0.914,1.137 1.421,1.719 1.48,1.68 0.059,-0.039 -0.34,-0.711 -1.141,-1.93 -1.132,-1.671 -2.312,-3.41 -3.593,-5.293 -3.172,-4.558 -7.887,-11.07 -13.899,-18.988 -12.062,-15.781 -29.472,-37.0702 -50.41,-59.0311 -21.047,-21.8594 -40.851,-40.8281 -56.805,-52.9805 -4.222,-2.7265 -8.644,-4.4687 -12.742,-4.6679 -4.062,-0.211 -7.551,0.7812 -10.019,2.1797 -2.52,1.3593 -3.961,3.1718 -4.739,4.4101 -0.785,1.2695 -0.902,2.0703 -0.902,2.0703"
         style="fill:#17282f;fill-opacity:1;fill-rule:nonzero;stroke:none"
         id="path230" /><path
         d="m 241.301,68.9688 c -0.074,0.1914 3.426,1.4609 9.277,1.0312 5.809,-0.3711 13.723,-2.6914 21.262,-7.3711 7.633,-4.5469 13.101,-11 15.449,-16.3398 2.43,-5.3282 2.617,-8.9883 2.422,-9.0078 -0.359,-0.1016 -1.078,3.4179 -3.734,8.3476 -2.598,4.9531 -7.86,10.8125 -15.231,15.2227 -7.285,4.5195 -14.789,6.9687 -20.324,7.6875 -5.563,0.789 -9.063,0.0703 -9.121,0.4297"
         style="fill:#17282f;fill-opacity:1;fill-rule:nonzero;stroke:none"
         id="path232" /><path
         d="m 348.051,103.328 c -0.129,-0.039 -0.637,1.133 -1.36,3.301 -0.714,2.172 -1.597,5.383 -2.226,9.453 -1.426,8.059 -0.629,20.078 5.246,31.367 5.758,11.41 15.273,18.891 22.809,22.153 3.781,1.687 7.046,2.519 9.316,2.867 2.277,0.34 3.551,0.34 3.566,0.222 0.082,-0.41 -5.066,-0.8 -12.246,-4.421 -7.125,-3.489 -16.07,-10.84 -21.582,-21.758 -5.672,-10.91 -6.656,-22.301 -5.652,-30.25 0.914,-8 2.496,-12.832 2.129,-12.934"
         style="fill:#17282f;fill-opacity:1;fill-rule:nonzero;stroke:none"
         id="path234" /><path
         d="m 386.695,196.801 c 0.508,-0.192 -2.031,-9.813 -4.136,-21.992 -2.051,-12.227 -5.262,-21.918 -5.895,-21.688 -0.457,0.168 1.793,9.84 3.848,22.07 2.117,12.239 5.605,21.821 6.183,21.61"
         style="fill:#17282f;fill-opacity:1;fill-rule:nonzero;stroke:none"
         id="path236" /><path
         d="m 276.031,144.672 c -0.097,0.519 6.52,1.719 14.457,-0.152 7.953,-1.79 13.379,-5.77 13.067,-6.2 -0.313,-0.531 -5.957,2.469 -13.535,4.18 -7.555,1.781 -13.95,1.559 -13.989,2.172"
         style="fill:#17282f;fill-opacity:1;fill-rule:nonzero;stroke:none"
         id="path238" /><path
         d="m 273.715,132.859 c -0.164,0.512 5.422,2.11 12.195,0.469 6.781,-1.578 11.055,-5.508 10.676,-5.898 -0.356,-0.5 -4.863,2.429 -11.16,3.871 -6.281,1.539 -11.621,0.949 -11.711,1.558"
         style="fill:#17282f;fill-opacity:1;fill-rule:nonzero;stroke:none"
         id="path240" /><path
         d="m 264.711,118.051 c -0.332,0.437 5.363,3.347 12.629,1.648 7.289,-1.609 11.168,-6.687 10.672,-6.949 -0.418,-0.461 -4.551,3.488 -11.133,4.922 -6.551,1.558 -11.984,-0.223 -12.168,0.379"
         style="fill:#17282f;fill-opacity:1;fill-rule:nonzero;stroke:none"
         id="path242" /><path
         d="m 283.789,149.621 c -0.074,0.34 5.207,1.43 13.242,4.539 4.004,1.59 8.684,3.699 13.598,6.551 2.453,1.41 4.988,3.019 7.48,4.789 2.293,1.699 4.813,4.191 4.723,6.84 -0.047,2.73 -3.402,4.121 -5.977,3.449 -2.699,-0.629 -4.902,-2.699 -6.957,-4.629 -4.152,-3.91 -7.695,-7.64 -10.578,-10.859 -5.761,-6.442 -8.968,-10.75 -9.23,-10.563 -0.113,0.082 0.547,1.262 1.902,3.282 1.367,2.011 3.438,4.871 6.211,8.242 2.77,3.367 6.235,7.25 10.367,11.277 2.039,1.961 4.352,4.359 7.828,5.25 3.227,0.93 8.25,-0.828 8.516,-5.34 -0.055,-4.23 -3.141,-6.679 -5.605,-8.609 -2.614,-1.82 -5.196,-3.399 -7.735,-4.801 -5.07,-2.82 -9.902,-4.84 -14.035,-6.258 -4.141,-1.41 -7.582,-2.25 -9.976,-2.711 -2.395,-0.468 -3.75,-0.57 -3.774,-0.449"
         style="fill:#17282f;fill-opacity:1;fill-rule:nonzero;stroke:none"
         id="path244" /><path
         d="m 289.711,151.051 c -0.344,-0.039 -0.809,4.859 -2.078,12.59 -0.699,3.839 -1.699,8.41 -3.844,13.031 -1.082,2.269 -2.437,4.66 -4.203,6.629 -1.723,1.949 -4.332,3.609 -6.422,2.39 -2.051,-1.14 -2.387,-4.3 -2.07,-6.851 0.394,-2.649 1.195,-5.238 2.191,-7.559 1.992,-4.691 4.817,-8.422 7.36,-11.351 5.218,-5.801 9.3,-8.59 9.066,-8.879 -0.07,-0.102 -1.172,0.469 -2.988,1.75 -1.809,1.277 -4.364,3.269 -7.16,6.129 -2.754,2.89 -5.821,6.672 -8.036,11.57 -1.101,2.461 -1.984,5.121 -2.461,8.09 -0.293,2.789 -0.343,6.762 3.094,8.922 3.672,1.929 7.156,-0.774 8.938,-2.84 2,-2.281 3.316,-4.762 4.433,-7.211 2.164,-4.922 3.028,-9.66 3.555,-13.602 0.504,-3.949 0.644,-7.148 0.734,-9.359 0.067,-2.211 0.035,-3.441 -0.109,-3.449"
         style="fill:#17282f;fill-opacity:1;fill-rule:nonzero;stroke:none"
         id="path246" /><path
         d="m 954.43,173.66 0.523,91.949 -172.234,2.082 -2.192,-134.511 10.668,-0.821 c 47.496,-3.218 241.715,-12.988 273.605,-3.75 35.56,10.321 -110.37,45.051 -110.37,45.051"
         style="fill:#33535f;fill-opacity:1;fill-rule:nonzero;stroke:none"
         id="path248" /><path
         d="m 778.148,137.16 c -0.003,-0.07 1.012,-0.191 2.957,-0.359 2.547,-0.192 5.344,-0.391 8.497,-0.621 8.503,-0.469 18.953,-1.059 31.289,-1.739 26.425,-1.293 62.957,-2.582 103.328,-3.14 40.383,-0.539 76.941,-0.219 103.391,0.347 12.35,0.352 22.81,0.661 31.32,0.903 3.16,0.148 5.96,0.277 8.51,0.39 1.95,0.118 2.97,0.207 2.97,0.289 -0.01,0.059 -1.03,0.11 -2.98,0.129 -2.56,0 -5.35,0 -8.52,0 -8.51,-0.058 -18.97,-0.14 -31.32,-0.23 -26.45,-0.199 -62.985,-0.277 -103.348,0.262 -40.34,0.55 -76.859,1.609 -103.293,2.519 -12.344,0.43 -22.801,0.789 -31.304,1.09 -3.165,0.078 -5.961,0.148 -8.52,0.219 -1.949,0.031 -2.977,0.011 -2.977,-0.059"
         style="fill:#17282f;fill-opacity:1;fill-rule:nonzero;stroke:none"
         id="path250" /><path
         d="m 1010.12,129.48 c 0.63,-0.089 1.22,7.379 6.03,14.86 4.69,7.582 11.18,11.32 10.83,11.84 -0.12,0.531 -7.55,-2.621 -12.59,-10.731 -5.14,-8.039 -4.79,-16.09 -4.27,-15.969"
         style="fill:#17282f;fill-opacity:1;fill-rule:nonzero;stroke:none"
         id="path252" /><path
         d="m 959.625,155.898 c 0.484,-0.308 2.953,2.622 5.516,6.543 2.558,3.93 4.25,7.368 3.765,7.68 -0.484,0.309 -2.953,-2.609 -5.511,-6.539 -2.563,-3.934 -4.254,-7.371 -3.77,-7.684"
         style="fill:#17282f;fill-opacity:1;fill-rule:nonzero;stroke:none"
         id="path254" /><path
         d="m 945.773,163.449 c 0.379,-0.429 3.125,1.352 6.122,3.973 3.003,2.629 5.128,5.109 4.746,5.547 -0.379,0.429 -3.121,-1.348 -6.118,-3.969 -3.003,-2.629 -5.128,-5.109 -4.75,-5.551"
         style="fill:#17282f;fill-opacity:1;fill-rule:nonzero;stroke:none"
         id="path256" /><path
         d="m 937.164,179.82 c -0.016,-0.582 4.004,-1.14 8.973,-1.261 4.968,-0.118 9.004,0.25 9.019,0.832 0.016,0.57 -4.004,1.14 -8.968,1.257 -4.973,0.114 -9.008,-0.257 -9.024,-0.828"
         style="fill:#17282f;fill-opacity:1;fill-rule:nonzero;stroke:none"
         id="path258" /><path
         d="m 934.281,191.32 c -0.199,-0.511 4.16,-2.55 9.992,-3.05 5.836,-0.52 10.481,0.718 10.372,1.25 -0.09,0.601 -4.649,0.332 -10.184,0.832 -5.543,0.468 -9.988,1.546 -10.18,0.968"
         style="fill:#17282f;fill-opacity:1;fill-rule:nonzero;stroke:none"
         id="path260" /><path
         d="m 965.66,170.852 c -0.015,-0.231 4.223,-0.813 11.07,-0.071 3.411,0.367 7.454,1.129 11.817,2.449 2.164,0.739 4.426,1.282 6.777,2.692 1.102,0.719 2.332,1.726 2.781,3.406 0.481,1.652 -0.386,3.524 -1.621,4.442 -10.507,5.621 -21.175,-0.2 -25.175,-5.61 -2.196,-2.769 -3.219,-5.48 -3.7,-7.351 -0.468,-1.879 -0.449,-2.969 -0.328,-2.981 0.391,-0.148 0.805,4.344 5.16,9.371 2.149,2.473 5.387,4.852 9.532,6.031 3.925,1.11 9.492,1.34 13.179,-1.07 1.743,-1.32 1.032,-3.379 -0.937,-4.519 -1.836,-1.153 -4.199,-1.84 -6.254,-2.582 -4.207,-1.387 -8.117,-2.27 -11.438,-2.821 -6.64,-1.09 -10.863,-1.047 -10.863,-1.386"
         style="fill:#17282f;fill-opacity:1;fill-rule:nonzero;stroke:none"
         id="path262" /><path
         d="m 968.52,170.27 c 0.156,-0.129 1.824,2.679 1.375,7.66 -0.243,2.449 -1.102,5.359 -2.922,8.129 -1.922,2.48 -4.395,5.902 -9.141,5.761 -2.566,-0.289 -3.855,-3.199 -3.477,-5.07 0.176,-1.941 1.028,-3.609 1.817,-4.969 1.613,-2.781 3.441,-5.051 5.141,-6.761 3.429,-3.442 6.152,-4.758 6.281,-4.559 0.195,0.269 -2.184,2.008 -5.192,5.559 -1.492,1.769 -3.113,4.011 -4.547,6.699 -1.488,2.351 -2.472,6.57 0.305,7.043 2.778,0.218 5.57,-2.571 7.231,-4.801 1.711,-2.41 2.64,-5.012 3.043,-7.231 0.785,-4.511 -0.286,-7.378 0.086,-7.46"
         style="fill:#17282f;fill-opacity:1;fill-rule:nonzero;stroke:none"
         id="path264" /><path
         d="m 782.262,184.238 c 0.035,-0.386 4.941,0.41 12.715,-0.597 7.699,-0.961 18.382,-4.262 27.617,-11.801 9.222,-7.559 14.57,-17.379 17.035,-24.738 2.535,-7.422 2.726,-12.383 3.117,-12.34 0.125,0.008 0.203,1.25 0.047,3.476 -0.152,2.231 -0.645,5.453 -1.762,9.313 -2.16,7.668 -7.5,18.019 -17.121,25.898 -9.621,7.86 -20.828,11.051 -28.773,11.653 -4.004,0.328 -7.262,0.179 -9.477,-0.133 -2.219,-0.278 -3.414,-0.598 -3.398,-0.731"
         style="fill:#17282f;fill-opacity:1;fill-rule:nonzero;stroke:none"
         id="path266" /><path
         d="m 801.027,255.691 c -0.578,0.008 -1.445,-15.82 -1.945,-35.363 -0.496,-19.547 -0.43,-35.398 0.148,-35.418 0.575,0 1.446,15.828 1.942,35.371 0.492,19.539 0.43,35.391 -0.145,35.41"
         style="fill:#17282f;fill-opacity:1;fill-rule:nonzero;stroke:none"
         id="path268" /><path
         d="m 864.879,150.289 c -0.082,-0.539 11.117,-2.519 25.105,-2.82 14,-0.328 25.274,1.16 25.215,1.703 -0.047,0.609 -11.301,0.058 -25.164,0.387 -13.863,0.293 -25.082,1.332 -25.156,0.73"
         style="fill:#17282f;fill-opacity:1;fill-rule:nonzero;stroke:none"
         id="path270" /><path
         d="m 831.125,150.762 c -0.426,-0.41 0.887,-2.391 2.004,-4.992 1.152,-2.571 1.715,-4.879 2.312,-4.848 0.555,-0.012 0.918,2.707 -0.398,5.687 -1.301,3 -3.543,4.571 -3.918,4.153"
         style="fill:#17282f;fill-opacity:1;fill-rule:nonzero;stroke:none"
         id="path272" /><path
         d="m 818.605,166.762 c -0.417,-0.403 0.672,-2.211 2.43,-4.032 1.758,-1.832 3.52,-2.992 3.938,-2.589 0.414,0.398 -0.672,2.211 -2.434,4.031 -1.758,1.828 -3.519,2.988 -3.934,2.59"
         style="fill:#17282f;fill-opacity:1;fill-rule:nonzero;stroke:none"
         id="path274" /><path
         d="m 800.492,174.219 c 0.113,-0.578 2.403,-0.578 4.918,-1.508 2.539,-0.859 4.328,-2.301 4.785,-1.91 0.465,0.308 -0.953,2.781 -4.086,3.879 -3.125,1.109 -5.785,0.082 -5.617,-0.461"
         style="fill:#17282f;fill-opacity:1;fill-rule:nonzero;stroke:none"
         id="path276" /><path
         d="m 787.578,177.809 c -0.215,-0.539 0.762,-1.438 2.184,-2.008 1.426,-0.571 2.75,-0.602 2.968,-0.063 0.215,0.524 -0.765,1.422 -2.187,2 -1.422,0.571 -2.75,0.602 -2.965,0.071"
         style="fill:#17282f;fill-opacity:1;fill-rule:nonzero;stroke:none"
         id="path278" /><path
         d="M 1071.62,1999.79 991.234,213.27 723.027,207.641 767.57,1703.28 465.891,196.211 H 210.895 L 551.461,1999.79"
         style="fill:#17282f;fill-opacity:1;fill-rule:nonzero;stroke:none"
         id="path280" /><path
         d="m 275.094,222.059 c 1.422,-0.231 2.015,-3.739 1.328,-7.821 -0.684,-4.078 -2.387,-7.199 -3.809,-6.957 -1.418,0.239 -2.011,3.739 -1.328,7.821 0.688,4.078 2.391,7.207 3.809,6.957"
         style="fill:#33535f;fill-opacity:1;fill-rule:nonzero;stroke:none"
         id="path282" /><path
         d="m 284.914,280.551 c 1.422,-0.231 1.469,-6.981 0.117,-15.051 -1.359,-8.078 -3.609,-14.43 -5.027,-14.199 -1.418,0.25 -1.469,6.98 -0.109,15.058 1.351,8.082 3.601,14.422 5.019,14.192"
         style="fill:#33535f;fill-opacity:1;fill-rule:nonzero;stroke:none"
         id="path284" /><path
         d="m 294.742,339.051 c 1.414,-0.242 1.465,-6.992 0.106,-15.063 -1.356,-8.078 -3.602,-14.429 -5.024,-14.187 -1.414,0.23 -1.465,6.969 -0.105,15.058 1.351,8.071 3.601,14.422 5.023,14.192"
         style="fill:#33535f;fill-opacity:1;fill-rule:nonzero;stroke:none"
         id="path286" /><path
         d="m 304.574,397.551 c 1.422,-0.242 1.473,-6.981 0.114,-15.063 -1.364,-8.078 -3.614,-14.429 -5.028,-14.199 -1.422,0.25 -1.472,6.992 -0.109,15.063 1.359,8.078 3.609,14.437 5.023,14.199"
         style="fill:#33535f;fill-opacity:1;fill-rule:nonzero;stroke:none"
         id="path288" /><path
         d="m 314.434,456.051 c 1.418,-0.242 1.464,-6.981 0.101,-15.063 -1.359,-8.078 -3.613,-14.418 -5.031,-14.187 -1.418,0.23 -1.465,6.98 -0.106,15.058 1.364,8.071 3.614,14.43 5.036,14.192"
         style="fill:#33535f;fill-opacity:1;fill-rule:nonzero;stroke:none"
         id="path290" /><path
         d="m 324.309,514.551 c 1.418,-0.231 1.464,-6.981 0.097,-15.051 -1.363,-8.078 -3.621,-14.441 -5.039,-14.191 -1.418,0.23 -1.461,6.98 -0.094,15.05 1.364,8.082 3.618,14.442 5.036,14.192"
         style="fill:#33535f;fill-opacity:1;fill-rule:nonzero;stroke:none"
         id="path292" /><path
         d="m 334.211,573.059 c 1.418,-0.239 1.457,-6.977 0.09,-15.059 -1.371,-8.078 -3.625,-14.43 -5.043,-14.191 -1.422,0.242 -1.461,6.98 -0.094,15.062 1.367,8.078 3.629,14.43 5.047,14.188"
         style="fill:#33535f;fill-opacity:1;fill-rule:nonzero;stroke:none"
         id="path294" /><path
         d="m 344.141,631.559 c 1.418,-0.25 1.457,-7 0.082,-15.071 -1.375,-8.09 -3.637,-14.449 -5.059,-14.199 -1.414,0.231 -1.449,6.981 -0.078,15.07 1.375,8.082 3.641,14.442 5.055,14.2"
         style="fill:#33535f;fill-opacity:1;fill-rule:nonzero;stroke:none"
         id="path296" /><path
         d="m 354.105,690.051 c 1.418,-0.242 1.454,-6.992 0.075,-15.071 -1.375,-8.07 -3.641,-14.421 -5.063,-14.179 -1.418,0.25 -1.445,6.988 -0.07,15.058 1.379,8.082 3.644,14.43 5.058,14.192"
         style="fill:#33535f;fill-opacity:1;fill-rule:nonzero;stroke:none"
         id="path298" /><path
         d="m 364.113,748.531 c 1.414,-0.242 1.446,-6.98 0.063,-15.062 -1.383,-8.078 -3.653,-14.418 -5.074,-14.18 -1.414,0.242 -1.446,6.981 -0.059,15.063 1.383,8.07 3.652,14.418 5.07,14.179"
         style="fill:#33535f;fill-opacity:1;fill-rule:nonzero;stroke:none"
         id="path300" /><path
         d="m 374.16,807.012 c 1.418,-0.242 1.442,-6.992 0.055,-15.063 -1.391,-8.078 -3.668,-14.418 -5.082,-14.168 -1.418,0.239 -1.442,6.981 -0.055,15.059 1.391,8.058 3.668,14.41 5.082,14.172"
         style="fill:#33535f;fill-opacity:1;fill-rule:nonzero;stroke:none"
         id="path302" /><path
         d="m 384.258,865.48 c 1.418,-0.242 1.437,-6.992 0.039,-15.058 -1.395,-8.07 -3.676,-14.422 -5.094,-14.184 -1.414,0.25 -1.433,7 -0.039,15.063 1.399,8.078 3.68,14.429 5.094,14.179"
         style="fill:#33535f;fill-opacity:1;fill-rule:nonzero;stroke:none"
         id="path304" /><path
         d="m 394.41,923.941 c 1.414,-0.25 1.43,-6.992 0.024,-15.062 -1.403,-8.078 -3.692,-14.41 -5.106,-14.168 -1.418,0.238 -1.426,6.988 -0.027,15.059 1.41,8.07 3.691,14.41 5.109,14.171"
         style="fill:#33535f;fill-opacity:1;fill-rule:nonzero;stroke:none"
         id="path306" /><path
         d="m 404.621,982.391 c 1.414,-0.25 1.418,-7 0.008,-15.059 -1.41,-8.07 -3.707,-14.422 -5.121,-14.16 -1.418,0.238 -1.422,6.976 -0.012,15.058 1.414,8.059 3.707,14.411 5.125,14.161"
         style="fill:#33535f;fill-opacity:1;fill-rule:nonzero;stroke:none"
         id="path308" /><path
         d="m 414.887,1040.82 c 1.418,-0.24 1.418,-6.99 -0.004,-15.06 -1.422,-8.06 -3.719,-14.4 -5.137,-14.16 -1.414,0.26 -1.414,7 0.012,15.07 1.414,8.07 3.715,14.41 5.129,14.15"
         style="fill:#33535f;fill-opacity:1;fill-rule:nonzero;stroke:none"
         id="path310" /><path
         d="m 425.23,1099.25 c 1.415,-0.25 1.407,-6.99 -0.023,-15.06 -1.434,-8.06 -3.742,-14.4 -5.156,-14.15 -1.418,0.26 -1.403,6.99 0.023,15.06 1.43,8.07 3.739,14.41 5.156,14.15"
         style="fill:#33535f;fill-opacity:1;fill-rule:nonzero;stroke:none"
         id="path312" /><path
         d="m 435.641,1157.67 c 1.414,-0.25 1.394,-7 -0.043,-15.06 -1.442,-8.07 -3.758,-14.4 -5.172,-14.15 -1.418,0.25 -1.399,6.99 0.043,15.06 1.441,8.07 3.754,14.4 5.172,14.15"
         style="fill:#33535f;fill-opacity:1;fill-rule:nonzero;stroke:none"
         id="path314" /><path
         d="m 446.129,1216.07 c 1.414,-0.26 1.387,-7 -0.063,-15.06 -1.453,-8.07 -3.777,-14.4 -5.191,-14.14 -1.414,0.25 -1.387,7 0.063,15.06 1.449,8.06 3.773,14.39 5.191,14.14"
         style="fill:#33535f;fill-opacity:1;fill-rule:nonzero;stroke:none"
         id="path316" /><path
         d="m 456.699,1274.46 c 1.418,-0.27 1.379,-7.01 -0.082,-15.06 -1.465,-8.07 -3.801,-14.4 -5.215,-14.13 -1.41,0.25 -1.371,6.99 0.086,15.06 1.465,8.05 3.797,14.38 5.211,14.13"
         style="fill:#33535f;fill-opacity:1;fill-rule:nonzero;stroke:none"
         id="path318" /><path
         d="m 467.359,1332.83 c 1.414,-0.27 1.368,-7.01 -0.109,-15.06 -1.473,-8.07 -3.816,-14.39 -5.234,-14.13 -1.411,0.26 -1.36,7 0.113,15.06 1.476,8.06 3.82,14.38 5.23,14.13"
         style="fill:#33535f;fill-opacity:1;fill-rule:nonzero;stroke:none"
         id="path320" /><path
         d="m 478.117,1391.18 c 1.41,-0.27 1.352,-7.01 -0.137,-15.06 -1.492,-8.06 -3.839,-14.38 -5.253,-14.11 -1.414,0.25 -1.356,7 0.136,15.05 1.485,8.06 3.836,14.38 5.254,14.12"
         style="fill:#33535f;fill-opacity:1;fill-rule:nonzero;stroke:none"
         id="path322" /><path
         d="m 488.965,1449.51 c 1.418,-0.27 1.344,-7.01 -0.156,-15.06 -1.504,-8.05 -3.868,-14.37 -5.282,-14.11 -1.414,0.27 -1.339,7.01 0.161,15.06 1.503,8.06 3.867,14.37 5.277,14.11"
         style="fill:#33535f;fill-opacity:1;fill-rule:nonzero;stroke:none"
         id="path324" /><path
         d="m 499.926,1507.83 c 1.414,-0.27 1.328,-7.02 -0.188,-15.06 -1.515,-8.06 -3.894,-14.37 -5.304,-14.1 -1.414,0.27 -1.332,7.01 0.187,15.06 1.516,8.05 3.891,14.36 5.305,14.1"
         style="fill:#33535f;fill-opacity:1;fill-rule:nonzero;stroke:none"
         id="path326" /><path
         d="m 510.996,1566.12 c 1.41,-0.27 1.313,-7.02 -0.219,-15.06 -1.535,-8.05 -3.918,-14.36 -5.332,-14.08 -1.41,0.26 -1.312,7.01 0.219,15.05 1.527,8.05 3.918,14.36 5.332,14.09"
         style="fill:#33535f;fill-opacity:1;fill-rule:nonzero;stroke:none"
         id="path328" /><path
         d="m 522.184,1624.39 c 1.41,-0.28 1.296,-7.01 -0.25,-15.06 -1.547,-8.05 -3.95,-14.35 -5.36,-14.07 -1.414,0.27 -1.301,7.01 0.246,15.06 1.551,8.04 3.953,14.34 5.364,14.07"
         style="fill:#33535f;fill-opacity:1;fill-rule:nonzero;stroke:none"
         id="path330" /><path
         d="m 533.496,1682.64 c 1.41,-0.28 1.285,-7.02 -0.281,-15.06 -1.57,-8.05 -3.981,-14.34 -5.391,-14.06 -1.414,0.27 -1.285,7.01 0.281,15.06 1.563,8.03 3.981,14.33 5.391,14.06"
         style="fill:#33535f;fill-opacity:1;fill-rule:nonzero;stroke:none"
         id="path332" /><path
         d="m 544.941,1740.85 c 1.411,-0.27 1.27,-7.01 -0.316,-15.05 -1.586,-8.04 -4.016,-14.33 -5.426,-14.05 -1.41,0.27 -1.269,7.02 0.317,15.06 1.582,8.04 4.015,14.33 5.425,14.04"
         style="fill:#33535f;fill-opacity:1;fill-rule:nonzero;stroke:none"
         id="path334" /><path
         d="m 556.523,1799.05 c 1.411,-0.28 1.254,-7.03 -0.351,-15.05 -1.606,-8.04 -4.047,-14.33 -5.457,-14.05 -1.414,0.29 -1.25,7.03 0.351,15.06 1.606,8.04 4.047,14.32 5.457,14.04"
         style="fill:#33535f;fill-opacity:1;fill-rule:nonzero;stroke:none"
         id="path336" /><path
         d="m 568.258,1857.21 c 1.406,-0.28 1.234,-7.02 -0.391,-15.05 -1.625,-8.04 -4.086,-14.31 -5.5,-14.02 -1.406,0.28 -1.23,7.02 0.399,15.05 1.621,8.03 4.082,14.31 5.492,14.02"
         style="fill:#33535f;fill-opacity:1;fill-rule:nonzero;stroke:none"
         id="path338" /><path
         d="m 580.152,1915.39 c 1.411,-0.29 1.215,-7.04 -0.433,-15.07 -1.653,-8.04 -4.129,-14.33 -5.539,-14.04 -1.41,0.3 -1.215,7.04 0.433,15.08 1.653,8.04 4.133,14.32 5.539,14.03"
         style="fill:#33535f;fill-opacity:1;fill-rule:nonzero;stroke:none"
         id="path340" /><path
         d="m 589.219,1959.17 c 1.406,-0.29 1.867,-3.82 1.027,-7.87 -0.848,-4.05 -2.668,-7.1 -4.074,-6.8 -1.41,0.29 -1.871,3.81 -1.024,7.87 0.84,4.05 2.665,7.1 4.071,6.8"
         style="fill:#33535f;fill-opacity:1;fill-rule:nonzero;stroke:none"
         id="path342" /><path
         d="m 769.27,222.262 c 1.433,-0.071 2.425,-3.492 2.21,-7.633 -0.214,-4.141 -1.554,-7.43 -2.988,-7.348 -1.437,0.078 -2.426,3.489 -2.211,7.629 0.215,4.129 1.551,7.422 2.989,7.352"
         style="fill:#33535f;fill-opacity:1;fill-rule:nonzero;stroke:none"
         id="path344" /><path
         d="m 771.734,281.77 c 1.434,-0.051 2.348,-6.758 2.036,-14.981 -0.313,-8.219 -1.727,-14.84 -3.165,-14.789 -1.441,0.059 -2.347,6.77 -2.039,14.988 0.313,8.211 1.731,14.832 3.168,14.782"
         style="fill:#33535f;fill-opacity:1;fill-rule:nonzero;stroke:none"
         id="path346" /><path
         d="m 773.57,341.309 c 1.434,-0.047 2.41,-6.75 2.172,-14.957 -0.238,-8.223 -1.597,-14.852 -3.035,-14.813 -1.437,0.039 -2.41,6.731 -2.168,14.961 0.234,8.219 1.594,14.852 3.031,14.809"
         style="fill:#33535f;fill-opacity:1;fill-rule:nonzero;stroke:none"
         id="path348" /><path
         d="m 775.078,400.852 c 1.442,-0.043 2.442,-6.743 2.242,-14.954 -0.207,-8.218 -1.535,-14.859 -2.968,-14.816 -1.442,0.027 -2.442,6.727 -2.243,14.949 0.207,8.219 1.536,14.848 2.969,14.821"
         style="fill:#33535f;fill-opacity:1;fill-rule:nonzero;stroke:none"
         id="path350" /><path
         d="m 776.5,460.41 c 1.434,-0.031 2.441,-6.73 2.246,-14.949 -0.195,-8.231 -1.519,-14.859 -2.961,-14.832 -1.433,0.043 -2.441,6.73 -2.246,14.961 0.195,8.219 1.52,14.859 2.961,14.82"
         style="fill:#33535f;fill-opacity:1;fill-rule:nonzero;stroke:none"
         id="path352" /><path
         d="m 778.047,520 c 1.437,-0.039 2.422,-6.738 2.199,-14.969 -0.223,-8.222 -1.57,-14.859 -3.004,-14.82 -1.441,0.039 -2.426,6.738 -2.203,14.969 0.227,8.218 1.566,14.859 3.008,14.82"
         style="fill:#33535f;fill-opacity:1;fill-rule:nonzero;stroke:none"
         id="path354" /><path
         d="m 780.016,579.57 c 1.433,-0.058 2.363,-6.761 2.07,-14.98 -0.293,-8.219 -1.695,-14.84 -3.129,-14.789 -1.441,0.051 -2.371,6.75 -2.078,14.98 0.293,8.231 1.695,14.848 3.137,14.789"
         style="fill:#33535f;fill-opacity:1;fill-rule:nonzero;stroke:none"
         id="path356" /><path
         d="m 782.516,639.09 c 1.433,-0.051 2.324,-6.758 1.976,-14.988 -0.347,-8.211 -1.785,-14.832 -3.226,-14.762 -1.438,0.058 -2.321,6.769 -1.977,14.988 0.344,8.211 1.789,14.82 3.227,14.762"
         style="fill:#33535f;fill-opacity:1;fill-rule:nonzero;stroke:none"
         id="path358" /><path
         d="m 784.84,698.621 c 1.433,-0.051 2.348,-6.762 2.035,-14.98 -0.312,-8.219 -1.734,-14.84 -3.168,-14.782 -1.437,0.051 -2.348,6.762 -2.035,14.981 0.312,8.211 1.726,14.832 3.168,14.781"
         style="fill:#33535f;fill-opacity:1;fill-rule:nonzero;stroke:none"
         id="path360" /><path
         d="m 786.914,758.16 c 1.438,-0.051 2.379,-6.762 2.102,-14.969 -0.282,-8.23 -1.672,-14.863 -3.106,-14.812 -1.437,0.051 -2.379,6.762 -2.101,14.973 0.277,8.226 1.671,14.847 3.105,14.808"
         style="fill:#33535f;fill-opacity:1;fill-rule:nonzero;stroke:none"
         id="path362" /><path
         d="m 788.734,817.738 c 1.442,-0.039 2.411,-6.738 2.164,-14.957 -0.238,-8.23 -1.601,-14.859 -3.043,-14.812 -1.433,0.043 -2.402,6.742 -2.16,14.961 0.243,8.218 1.606,14.851 3.039,14.808"
         style="fill:#33535f;fill-opacity:1;fill-rule:nonzero;stroke:none"
         id="path364" /><path
         d="m 790.293,877.289 c 1.441,-0.039 2.437,-6.738 2.23,-14.949 -0.203,-8.238 -1.535,-14.871 -2.972,-14.828 -1.442,0.027 -2.438,6.726 -2.231,14.949 0.203,8.23 1.539,14.859 2.973,14.828"
         style="fill:#33535f;fill-opacity:1;fill-rule:nonzero;stroke:none"
         id="path366" /><path
         d="m 791.578,936.84 c 1.442,-0.031 2.469,-6.719 2.301,-14.942 -0.168,-8.218 -1.473,-14.867 -2.906,-14.839 -1.442,0.031 -2.465,6.722 -2.301,14.953 0.168,8.218 1.469,14.859 2.906,14.828"
         style="fill:#33535f;fill-opacity:1;fill-rule:nonzero;stroke:none"
         id="path368" /><path
         d="m 792.582,996.398 c 1.438,-0.027 2.496,-6.707 2.371,-14.929 -0.129,-8.219 -1.398,-14.879 -2.84,-14.86 -1.433,0.032 -2.5,6.711 -2.367,14.942 0.129,8.219 1.399,14.871 2.836,14.847"
         style="fill:#33535f;fill-opacity:1;fill-rule:nonzero;stroke:none"
         id="path370" /><path
         d="m 793.297,1055.96 c 1.441,-0.02 2.535,-6.7 2.445,-14.92 -0.094,-8.22 -1.328,-14.87 -2.769,-14.86 -1.434,0.01 -2.528,6.69 -2.442,14.92 0.09,8.22 1.328,14.87 2.766,14.86"
         style="fill:#33535f;fill-opacity:1;fill-rule:nonzero;stroke:none"
         id="path372" /><path
         d="m 793.723,1115.52 c 1.437,-0.01 2.566,-6.68 2.519,-14.9 -0.051,-8.22 -1.258,-14.88 -2.695,-14.88 -1.438,0.01 -2.567,6.69 -2.516,14.91 0.047,8.22 1.254,14.88 2.692,14.87"
         style="fill:#33535f;fill-opacity:1;fill-rule:nonzero;stroke:none"
         id="path374" /><path
         d="m 793.852,1175.09 c 1.437,0 2.597,-6.67 2.589,-14.89 -0.003,-8.23 -1.175,-14.89 -2.617,-14.89 -1.437,0 -2.597,6.67 -2.59,14.89 0.008,8.22 1.18,14.89 2.618,14.89"
         style="fill:#33535f;fill-opacity:1;fill-rule:nonzero;stroke:none"
         id="path376" /><path
         d="m 793.684,1234.65 c 1.437,0.01 2.629,-6.66 2.664,-14.88 0.035,-8.22 -1.102,-14.89 -2.543,-14.9 -1.438,0 -2.633,6.66 -2.668,14.88 -0.032,8.22 1.109,14.9 2.547,14.9"
         style="fill:#33535f;fill-opacity:1;fill-rule:nonzero;stroke:none"
         id="path378" /><path
         d="m 793.215,1294.22 c 1.433,0.01 2.66,-6.65 2.738,-14.87 0.074,-8.22 -1.031,-14.9 -2.465,-14.91 -1.441,-0.01 -2.668,6.64 -2.746,14.87 -0.074,8.22 1.031,14.89 2.473,14.91"
         style="fill:#33535f;fill-opacity:1;fill-rule:nonzero;stroke:none"
         id="path380" /><path
         d="m 792.441,1353.78 c 1.442,0.02 2.7,-6.63 2.817,-14.85 0.113,-8.22 -0.957,-14.9 -2.391,-14.93 -1.441,-0.02 -2.699,6.63 -2.816,14.86 -0.117,8.21 0.957,14.9 2.39,14.92"
         style="fill:#33535f;fill-opacity:1;fill-rule:nonzero;stroke:none"
         id="path382" /><path
         d="m 791.383,1413.31 c 1.433,0.03 2.73,-6.61 2.89,-14.83 0.153,-8.23 -0.89,-14.92 -2.328,-14.94 -1.437,-0.03 -2.726,6.61 -2.882,14.83 -0.157,8.22 0.878,14.91 2.32,14.94"
         style="fill:#33535f;fill-opacity:1;fill-rule:nonzero;stroke:none"
         id="path384" /><path
         d="m 790.039,1472.91 c 1.438,0.04 2.766,-6.6 2.965,-14.83 0.199,-8.24 -0.801,-14.94 -2.238,-14.97 -1.438,-0.03 -2.766,6.61 -2.969,14.83 -0.199,8.24 0.801,14.93 2.242,14.97"
         style="fill:#33535f;fill-opacity:1;fill-rule:nonzero;stroke:none"
         id="path386" /><path
         d="m 787.941,1532.49 c 1.438,0.07 2.864,-6.55 3.192,-14.78 0.328,-8.23 -0.57,-14.95 -2.012,-15 -1.433,-0.05 -2.867,6.57 -3.191,14.79 -0.325,8.22 0.574,14.93 2.011,14.99"
         style="fill:#33535f;fill-opacity:1;fill-rule:nonzero;stroke:none"
         id="path388" /><path
         d="m 784.473,1592 c 1.437,0.1 3.031,-6.48 3.57,-14.7 0.535,-8.22 -0.191,-14.95 -1.625,-15.03 -1.438,-0.09 -3.035,6.49 -3.57,14.69 -0.539,8.2 0.191,14.93 1.625,15.04"
         style="fill:#33535f;fill-opacity:1;fill-rule:nonzero;stroke:none"
         id="path390" /><path
         d="m 779.02,1651.32 c 1.429,0.16 3.261,-6.36 4.097,-14.55 0.832,-8.2 0.352,-14.95 -1.086,-15.09 -1.429,-0.12 -3.265,6.39 -4.097,14.56 -0.829,8.16 -0.34,14.92 1.086,15.08"
         style="fill:#33535f;fill-opacity:1;fill-rule:nonzero;stroke:none"
         id="path392" /><path
         d="m 773.262,1695.6 c 1.422,0.2 3.047,-2.95 3.633,-7.06 0.585,-4.11 -0.098,-7.6 -1.524,-7.79 -1.426,-0.2 -3.051,2.96 -3.633,7.06 -0.582,4.09 0.102,7.57 1.524,7.79"
         style="fill:#33535f;fill-opacity:1;fill-rule:nonzero;stroke:none"
         id="path394" /><path
         d="m 812.242,1977.13 c 0.356,-0.02 0.457,-3.95 0.332,-11.04 -0.129,-7.09 -0.48,-17.35 -1.027,-30 -1.098,-25.33 -2.969,-60.28 -5.356,-98.86 -1.265,-19.23 -2.464,-37.54 -3.574,-54.39 -1.269,-16.57 -1.547,-32.12 -6.519,-44.46 -4.739,-12.46 -13.957,-19.59 -20.75,-22.09 -3.457,-1.26 -6.328,-1.6 -8.239,-1.55 -1.914,0.05 -2.89,0.3 -2.879,0.46 -0.035,0.53 4.083,0.05 10.321,2.96 6.078,2.89 14.156,9.85 18.101,21.51 4.219,11.58 4.18,26.72 5.176,43.46 0.981,16.86 2.047,35.18 3.164,54.42 2.391,38.59 4.844,73.5 6.879,98.76 1.016,12.63 1.93,22.85 2.68,29.9 0.75,7.05 1.336,10.94 1.691,10.92"
         style="fill:#33535f;fill-opacity:1;fill-rule:nonzero;stroke:none"
         id="path396" /><path
         d="m 784.703,1953.41 c 0,0.68 4.481,-0.15 6.121,-6.03 0.68,-2.73 0.621,-6.64 -2.16,-9.98 -2.793,-3.46 -8.277,-4.35 -12.496,-2.53 -4.281,1.64 -7.602,6.09 -7.191,10.51 0.332,4.35 3.019,7.19 5.41,8.68 5.277,3.07 9.066,0.53 8.593,0.04 -0.175,-0.75 -3.316,-0.17 -6.433,-3.03 -1.484,-1.36 -2.852,-3.56 -2.777,-5.82 -0.02,-2.21 1.691,-4.46 4.359,-5.56 2.684,-1.06 5.469,-0.65 7,0.95 1.625,1.56 2.187,4.1 2.07,6.1 -0.242,4.23 -2.898,6 -2.496,6.67"
         style="fill:#33535f;fill-opacity:1;fill-rule:nonzero;stroke:none"
         id="path398" /><path
         d="m 532.324,1911.05 c 0.336,0.85 8.668,-2.9 22.891,-4.87 14.062,-2.03 34.512,-1.39 54.394,7.48 19.879,8.9 33.989,23.72 41.856,35.54 8.027,11.91 10.793,20.61 11.644,20.3 0.508,-0.1 -1.004,-9.36 -8.535,-22.26 -7.336,-12.79 -21.777,-28.91 -42.84,-38.34 -21.07,-9.39 -42.707,-9.4 -57.129,-6.35 -14.632,3.01 -22.542,8.05 -22.281,8.5"
         style="fill:#33535f;fill-opacity:1;fill-rule:nonzero;stroke:none"
         id="path400" /><path
         d="m 978.363,1977.12 c 0.871,0.03 1.063,-7.34 4.504,-18.39 3.34,-10.96 10.731,-25.66 23.883,-37.2 13.18,-11.54 28.73,-16.94 40.03,-18.8 11.41,-1.97 18.75,-1.18 18.82,-2.05 0.12,-0.55 -7.2,-2.69 -19.31,-1.6 -11.94,0.99 -28.81,6.14 -42.97,18.52 -14.129,12.41 -21.449,28.45 -24.004,40.17 -2.671,11.85 -1.507,19.39 -0.953,19.35"
         style="fill:#33535f;fill-opacity:1;fill-rule:nonzero;stroke:none"
         id="path402" /><path
         d="m 1128.89,1936.24 -591.124,40.89 20.457,282.39 0.297,157.86 -57.426,-88.77 -178.406,155.1 191.773,250.33 0.012,-0.04 c 32.656,33.9 70.894,58.97 116.644,75.51 22.227,8.04 45.817,12.86 73.102,14.01 v 0 c 58.851,-18.19 117.707,-18.22 176.558,-0.1 24.243,-3.05 80.278,-6.58 160.493,-29.77 l 223.85,-60.53 -73.7,-274.86 -135.23,45.52 c 0,0 74.07,-510.45 72.7,-567.54"
         style="fill:#f03d5f;fill-opacity:1;fill-rule:nonzero;stroke:none"
         id="path404" /><path
         d="m 552.84,2408.26 c -1.207,0.78 7.094,15.95 18.531,33.88 11.445,17.93 21.719,31.86 22.949,31.11 1.235,-0.75 -7.07,-15.92 -18.539,-33.89 -11.465,-17.96 -21.742,-31.89 -22.941,-31.1"
         style="fill:#17282f;fill-opacity:1;fill-rule:nonzero;stroke:none"
         id="path406" /><path
         d="m 886.781,2727.64 c -204.445,0 -370.129,1.17 -370.129,2.61 0,1.43 165.684,2.6 370.129,2.6 204.379,0 370.099,-1.17 370.099,-2.6 0,-1.44 -165.72,-2.61 -370.099,-2.61"
         style="fill:#f89db4;fill-opacity:1;fill-rule:nonzero;stroke:none"
         id="path408" /><path
         d="m 821.695,2600.02 c -220.664,0 -399.488,1.16 -399.488,2.6 0,1.44 178.824,2.6 399.488,2.6 220.585,0 399.445,-1.16 399.445,-2.6 0,-1.44 -178.86,-2.6 -399.445,-2.6"
         style="fill:#f89db4;fill-opacity:1;fill-rule:nonzero;stroke:none"
         id="path410" /><path
         d="m 1062.22,2461.87 c -0.04,0.24 -0.07,0.49 -0.11,0.73 2.3,-0.12 3.49,-0.24 3.49,-0.36 0,-0.13 -1.15,-0.25 -3.38,-0.37"
         style="fill:#ffffff;fill-opacity:1;fill-rule:nonzero;stroke:none"
         id="path412" /><path
         d="m 708.188,2459.63 c -42.106,0 -82.524,0.05 -120.036,0.15 1.008,1.78 1.914,3.43 2.703,4.91 36.754,0.1 76.227,0.15 117.333,0.15 180.363,0 329.552,-0.98 353.922,-2.24 0.04,-0.24 0.07,-0.49 0.11,-0.73 -24.06,-1.27 -173.415,-2.24 -354.032,-2.24 m -125.036,0.16 c -135.765,0.37 -232.414,1.33 -232.414,2.45 0,1.12 98.328,2.08 235.93,2.44 -1.09,-1.48 -2.27,-3.11 -3.516,-4.89"
         style="fill:#f89db4;fill-opacity:1;fill-rule:nonzero;stroke:none"
         id="path414" /><path
         d="m 588.152,2459.78 c -1.675,0 -3.336,0.01 -5,0.01 1.246,1.78 2.426,3.41 3.516,4.89 1.391,0.01 2.785,0.01 4.187,0.01 -0.789,-1.48 -1.695,-3.13 -2.703,-4.91"
         style="fill:#9ba6a6;fill-opacity:1;fill-rule:nonzero;stroke:none"
         id="path416" /><path
         d="m 1083.73,2309.25 c -0.02,0.16 -0.04,0.27 -0.06,0.43 0.61,-0.07 0.92,-0.15 0.92,-0.22 0,-0.07 -0.29,-0.14 -0.86,-0.21"
         style="fill:#ffffff;fill-opacity:1;fill-rule:nonzero;stroke:none"
         id="path418" /><path
         d="m 821.688,2306.85 c -145.227,0 -262.922,1.17 -262.922,2.61 0,1.44 117.695,2.6 262.922,2.6 137.734,0 250.752,-1.05 261.982,-2.38 0.02,-0.16 0.04,-0.27 0.06,-0.43 -10.88,-1.34 -124.058,-2.4 -262.042,-2.4"
         style="fill:#f89db4;fill-opacity:1;fill-rule:nonzero;stroke:none"
         id="path420" /><path
         d="m 829.906,2148.34 c -149.062,0 -269.867,1.17 -269.867,2.61 0,1.44 120.805,2.6 269.867,2.6 149.016,0 269.844,-1.16 269.844,-2.6 0,-1.44 -120.828,-2.61 -269.844,-2.61"
         style="fill:#f89db4;fill-opacity:1;fill-rule:nonzero;stroke:none"
         id="path422" /><path
         d="m 1123.19,2005.37 c -0.02,0.14 -0.03,0.28 -0.05,0.42 0.63,-0.07 0.95,-0.14 0.95,-0.21 0,-0.07 -0.31,-0.14 -0.9,-0.21 m -583.366,0.2 c 0,0.01 0,0.01 0,0.01 0,0 0,0 0,0.01 v -0.02"
         style="fill:#ffffff;fill-opacity:1;fill-rule:nonzero;stroke:none"
         id="path424" /><path
         d="m 831.969,2002.97 c -161.215,0 -291.891,1.16 -292.145,2.6 v 0.02 c 0.449,1.43 131.047,2.59 292.145,2.59 153.344,0 279.111,-1.05 291.171,-2.39 0.02,-0.14 0.03,-0.28 0.05,-0.42 -11.79,-1.35 -137.682,-2.4 -291.221,-2.4"
         style="fill:#f89db4;fill-opacity:1;fill-rule:nonzero;stroke:none"
         id="path426" /></g></g></svg>
